<svg width="294" height="294" viewBox="0 0 294 294" fill="none" xmlns="http://www.w3.org/2000/svg">
<g clip-path="url(#clip0_6_908)">
<path opacity="0.7" d="M39.9429 98.2489C39.9429 98.2489 23.5494 140.585 46.5873 183.215C69.6251 225.845 117.077 248.365 155.056 267.622C193.035 286.879 232.472 277.501 251.211 245.96C269.951 214.42 244.249 191.906 244.214 146.929C244.179 101.953 250.947 90.0463 226.574 52.0498C202.201 14.0532 142.455 5.63891 97.2729 33.8218C52.091 62.0046 39.9429 98.2489 39.9429 98.2489Z" fill="white"/>
<path d="M77.616 251.411C91.4928 266.064 125.562 260.696 140.32 251.411C188.242 221.276 272.197 171.108 276.001 98.4312C277.618 67.5436 250.376 51.3206 238.998 46.5637C211.68 35.133 181.692 31.705 152.086 30.382C121.175 29.0002 87.9942 30.0762 60.1759 45.1584C49.6272 50.8679 39.6783 58.212 32.8692 68.208C25.9543 78.3686 21.9736 90.4697 20.9152 102.682C19.2159 122.38 24.5137 142.131 32.5282 160.206C40.5426 178.282 51.2266 195.016 61.0344 212.186C67.4377 223.375 65.9501 239.069 77.616 251.411Z" fill="#90CAF9"/>
<path opacity="0.7" d="M77.616 251.411C91.4928 266.064 125.562 260.696 140.32 251.411C188.242 221.276 272.197 171.108 276.001 98.4312C277.618 67.5436 250.376 51.3206 238.998 46.5637C211.68 35.133 181.692 31.705 152.086 30.382C121.175 29.0002 87.9942 30.0762 60.1759 45.1584C49.6272 50.8679 39.6783 58.212 32.8692 68.208C25.9543 78.3686 21.9736 90.4697 20.9152 102.682C19.2159 122.38 24.5137 142.131 32.5282 160.206C40.5426 178.282 51.2266 195.016 61.0344 212.186C67.4377 223.375 65.9501 239.069 77.616 251.411Z" fill="white"/>
<path d="M274.676 122.755L251.362 115.689C250.271 115.358 249.119 115.975 248.788 117.066L244.702 130.549C244.371 131.639 244.988 132.792 246.078 133.122L269.392 140.188C270.483 140.518 271.635 139.902 271.966 138.811L276.052 125.328C276.383 124.237 275.766 123.085 274.676 122.755Z" stroke="#263238" stroke-miterlimit="10"/>
<path d="M1.97509 125.417L25.2888 118.351C26.3797 118.02 27.532 118.637 27.8626 119.728L31.9487 133.211C32.2793 134.301 31.663 135.454 30.5722 135.784L7.25842 142.85C6.16756 143.18 5.01527 142.564 4.68467 141.473L0.598529 127.99C0.267933 126.899 0.884233 125.747 1.97509 125.417Z" stroke="#263238" stroke-miterlimit="10"/>
<path d="M28.4911 121.802L1.22559 130.064" stroke="#263238" stroke-miterlimit="10"/>
<path d="M247.33 121.881L274.59 130.142" stroke="#263238" stroke-miterlimit="10"/>
<path d="M237.363 58.3379L203.329 73.9202L211.436 91.6271L245.47 76.0449L237.363 58.3379Z" stroke="#263238" stroke-miterlimit="10"/>
<path d="M39.2874 61L73.322 76.5823L65.2151 94.2893L31.1805 78.707L39.2874 61Z" stroke="#263238" stroke-miterlimit="10"/>
<path d="M227.516 79.0443C229.756 77.3232 230.177 74.1117 228.456 71.8711C226.735 69.6306 223.524 69.2095 221.283 70.9306C219.043 72.6517 218.622 75.8632 220.343 78.1037C222.064 80.3443 225.275 80.7654 227.516 79.0443Z" stroke="#263238" stroke-miterlimit="10"/>
<path d="M49.1348 81.7063C46.8943 79.9852 46.4732 76.7736 48.1943 74.5331C49.9153 72.2926 53.1269 71.8715 55.3674 73.5926C57.6079 75.3136 58.029 78.5252 56.3079 80.7657C54.5869 83.0062 51.3753 83.4273 49.1348 81.7063Z" stroke="#263238" stroke-miterlimit="10"/>
<path d="M261.266 66.2734C264.091 66.2734 266.382 63.9831 266.382 61.1578C266.382 58.3326 264.091 56.0422 261.266 56.0422C258.441 56.0422 256.15 58.3326 256.15 61.1578C256.15 63.9831 258.441 66.2734 261.266 66.2734Z" stroke="#263238" stroke-miterlimit="10"/>
<path d="M227.573 129.596C230.323 128.948 232.026 126.193 231.378 123.443C230.73 120.693 227.976 118.99 225.226 119.638C222.476 120.286 220.772 123.04 221.42 125.79C222.068 128.54 224.823 130.244 227.573 129.596Z" stroke="#263238" stroke-miterlimit="10"/>
<path d="M49.078 132.258C46.3281 131.61 44.6242 128.855 45.2722 126.105C45.9202 123.355 48.6748 121.651 51.4248 122.3C54.1747 122.948 55.8787 125.702 55.2306 128.452C54.5826 131.202 51.828 132.906 49.078 132.258Z" stroke="#263238" stroke-miterlimit="10"/>
<path d="M135.757 233.042C136.389 234.425 136.596 235.963 136.353 237.464C136.109 238.964 135.427 240.359 134.391 241.471C133.355 242.583 132.013 243.364 130.534 243.713C129.054 244.063 127.505 243.966 126.081 243.434C124.657 242.903 123.422 241.962 122.533 240.729C121.644 239.496 121.141 238.027 121.086 236.509C121.032 234.99 121.429 233.489 122.228 232.195C123.027 230.902 124.191 229.875 125.573 229.244C126.491 228.824 127.483 228.59 128.492 228.554C129.5 228.518 130.506 228.681 131.452 229.033C132.398 229.386 133.265 229.922 134.004 230.609C134.742 231.297 135.338 232.124 135.757 233.042Z" stroke="#263238" stroke-miterlimit="10"/>
<path d="M174.983 252.352C175.452 252.916 175.744 253.606 175.821 254.336C175.898 255.065 175.757 255.802 175.416 256.451C175.075 257.101 174.548 257.634 173.904 257.985C173.259 258.335 172.525 258.487 171.795 258.42C171.064 258.354 170.369 258.072 169.799 257.611C169.228 257.15 168.807 256.53 168.589 255.829C168.371 255.129 168.365 254.379 168.573 253.675C168.78 252.972 169.192 252.345 169.756 251.875C170.512 251.247 171.488 250.944 172.468 251.033C173.448 251.122 174.352 251.597 174.983 252.352Z" stroke="#263238" stroke-miterlimit="10"/>
<path d="M73.4337 40.9739C73.6209 38.9333 72.1184 37.1274 70.0778 36.9403C68.0372 36.7531 66.2313 38.2556 66.0442 40.2962C65.857 42.3368 67.3595 44.1427 69.4001 44.3298C71.4407 44.517 73.2466 43.0145 73.4337 40.9739Z" stroke="#263238" stroke-miterlimit="10"/>
<path opacity="0.2" d="M153.356 192.752C153.356 192.752 148.823 215.761 121.016 220.976C121.016 220.976 113.754 226.768 111.338 230.196C108.921 233.624 96.0498 239.451 82.9374 257.632C69.825 275.813 50.3034 218.077 50.3034 218.077L93.4508 162.041L153.356 192.752Z" fill="black" fill-opacity="0.7"/>
<path d="M178.07 84.7191C178.07 84.7191 193.064 77.3867 196.363 78.6509C199.661 79.9151 202.831 87.5003 190.218 94.7621C177.605 102.024 181.369 115.554 181.369 115.554H190.365C190.365 115.554 195.763 117.753 197.862 120.581C199.961 123.409 201.461 133.053 202.66 136.322C203.86 139.591 203.248 142.866 199.961 143.931C199.961 143.931 197.862 153.08 198.462 157.137C199.061 161.194 198.762 163.805 194.863 164.299C193.882 164.401 192.891 164.289 191.958 163.97C191.024 163.651 190.172 163.133 189.458 162.452C188.745 161.771 188.189 160.942 187.828 160.025C187.466 159.107 187.309 158.122 187.366 157.137L184.367 168.003L186.467 172.178C189.432 173.326 192.172 174.986 194.563 177.082C198.762 180.681 202.96 181.663 201.76 185.673C200.561 189.683 198.162 194.005 185.567 188.995C172.972 183.985 162.476 164.299 162.476 164.299L154.909 95.6559L178.07 84.7191Z" fill="white"/>
<path opacity="0.4" d="M193.852 124.15C187.055 133.417 194.575 144.089 194.575 144.089C194.575 144.089 189.871 146.712 189.736 153.403C189.683 156.185 190.383 160.071 191.218 163.67C189.995 163.092 188.975 162.161 188.289 160.996C187.603 159.83 187.284 158.486 187.372 157.137L184.367 168.003L186.467 172.172C188.675 173.018 190.757 174.163 192.652 175.577C190.788 179.857 190.218 185.149 190.383 190.606C188.745 190.171 187.136 189.633 185.567 188.995C172.972 183.979 162.476 164.299 162.476 164.299L154.909 95.65L178.07 84.7191C178.07 84.7191 186.261 80.7148 191.87 79.1331C191.435 84.378 192.458 89.8053 193.199 92.8276C192.242 93.5278 191.247 94.1736 190.218 94.7621C177.623 102.024 181.369 115.554 181.369 115.554H190.371C190.371 115.554 195.498 117.647 197.697 120.369C196.193 121.382 194.89 122.664 193.852 124.15Z" fill="#90CAF9"/>
<path d="M154.644 181.692C154.644 181.692 138.333 213.673 108.933 220.929C108.933 220.929 107.81 227.256 102.835 229.973C100.178 231.419 89.4524 247.489 80.0386 262.16L27.8947 230.173C31.1052 226.997 34.7626 223.34 38.4787 219.524C49.3567 208.434 60.9638 196.004 64.5154 189.853C67.6906 184.385 71.7066 174.895 75.2052 165.975C79.6858 154.568 83.3314 144.089 83.3314 144.089L100.713 124.768L128.037 94.3857L129.213 98.2724L154.644 181.692Z" fill="white"/>
<path opacity="0.4" d="M128.061 94.3857L154.644 181.692C154.644 181.692 138.333 213.673 108.933 220.929C108.933 220.929 107.81 227.256 102.835 229.973C100.448 231.272 91.5634 244.355 82.9668 257.609C86.1538 246.672 95.3795 229.238 95.3795 229.238C89.4583 222.223 91.187 214.832 93.5567 216.937C95.9263 219.042 101.883 224.957 102.259 225.327C99.6425 222.246 99.0368 217.419 99.0368 217.419C99.0368 217.419 106.375 222.299 106.969 214.479C107.563 206.658 102.571 187.548 102.571 187.548L89.4642 137.298L128.061 94.3857Z" fill="#90CAF9"/>
<path d="M154.909 95.6559L178.07 84.7191C178.07 84.7191 193.064 77.3867 196.363 78.6509C199.661 79.9151 202.831 87.5003 190.218 94.7621C177.605 102.024 181.369 115.554 181.369 115.554H190.365C190.365 115.554 195.763 117.753 197.862 120.581C199.961 123.409 201.461 133.053 202.66 136.322C203.86 139.591 203.248 142.866 199.961 143.931C199.961 143.931 197.862 153.08 198.462 157.137C199.061 161.194 198.762 163.805 194.863 164.299C193.882 164.401 192.891 164.289 191.958 163.97C191.024 163.651 190.172 163.133 189.458 162.452C188.745 161.771 188.189 160.942 187.828 160.025C187.466 159.107 187.309 158.122 187.366 157.137L184.367 168.003L186.467 172.178C189.432 173.326 192.172 174.986 194.563 177.082C198.762 180.681 202.96 181.663 201.76 185.673C200.561 189.683 198.162 194.005 185.567 188.995C172.972 183.985 162.476 164.299 162.476 164.299" stroke="#263238" stroke-linecap="round" stroke-linejoin="round"/>
<path d="M199.961 143.931C195.463 145.148 190.218 144.248 188.266 136.287C186.314 128.325 190.218 119.823 192.764 119.041" stroke="#263238" stroke-linecap="round" stroke-linejoin="round"/>
<path d="M187.366 157.137C187.366 157.137 187.066 146.9 190.818 144.372" stroke="#263238" stroke-linecap="round" stroke-linejoin="round"/>
<path opacity="0.4" d="M77.9806 207.982C77.9806 207.982 66.9909 206.612 64.5389 201.696C62.5103 197.627 51.5147 212.868 38.5023 219.524C49.3803 208.434 60.9874 196.004 64.5389 189.854C67.7141 184.385 71.7301 174.895 75.2287 165.975C75.0523 173.372 71.1127 184.697 72.2358 190.594C71.0324 190.913 70.0028 191.692 69.37 192.764C68.7372 193.836 68.5521 195.114 68.8548 196.322C69.6957 201.008 77.9806 207.982 77.9806 207.982Z" fill="#90CAF9"/>
<path d="M154.644 181.692C154.644 181.692 138.333 213.673 108.927 220.929C108.927 220.929 107.81 227.256 102.835 229.973C100.178 231.419 89.4583 247.489 80.0327 262.16" stroke="#263238" stroke-linecap="round" stroke-linejoin="round"/>
<path d="M27.8947 230.173C40.4544 217.76 59.7584 198.08 64.5389 189.853C71.7713 177.405 83.3549 144.083 83.3549 144.083L128.043 94.3857" stroke="#263238" stroke-linecap="round" stroke-linejoin="round"/>
<path d="M102.541 132.341C102.541 132.341 109.409 138.492 111.361 144.101" stroke="#263238" stroke-linecap="round" stroke-linejoin="round"/>
<path d="M183.609 42.7594H109.715C107.529 42.7594 105.758 44.5311 105.758 46.7166V204.024C105.758 206.21 107.529 207.982 109.715 207.982H183.609C185.794 207.982 187.566 206.21 187.566 204.024V46.7166C187.566 44.5311 185.794 42.7594 183.609 42.7594Z" fill="#263238"/>
<path d="M162.876 47.2576L161.312 50.1211C161.146 50.4319 160.9 50.6921 160.599 50.8743C160.298 51.0565 159.953 51.1538 159.601 51.156H133.729C133.377 51.1541 133.033 51.0583 132.731 50.8784C132.429 50.6985 132.181 50.4411 132.012 50.1329L130.454 47.2693C130.286 46.9599 130.038 46.7015 129.736 46.5214C129.434 46.3413 129.089 46.2462 128.737 46.2462H110.656C110.398 46.247 110.143 46.2986 109.905 46.3981C109.668 46.4976 109.452 46.643 109.271 46.8259C109.089 47.0089 108.946 47.2259 108.849 47.4645C108.751 47.703 108.702 47.9584 108.704 48.216V202.86C108.704 203.378 108.909 203.875 109.275 204.242C109.641 204.61 110.137 204.816 110.656 204.818H182.662C182.92 204.82 183.176 204.77 183.415 204.672C183.654 204.575 183.871 204.431 184.054 204.249C184.237 204.067 184.383 203.85 184.482 203.612C184.581 203.374 184.632 203.118 184.632 202.86V48.216C184.632 47.6967 184.426 47.1987 184.058 46.8315C183.691 46.4643 183.193 46.258 182.674 46.258H164.599C164.248 46.2546 163.903 46.3456 163.6 46.5215C163.297 46.6974 163.047 46.9517 162.876 47.2576Z" fill="#90CAF9" stroke="#263238" stroke-linecap="round" stroke-linejoin="round"/>
<path d="M141.049 48.6453C141.631 48.6453 142.102 48.1741 142.102 47.5928C142.102 47.0115 141.631 46.5403 141.049 46.5403C140.468 46.5403 139.997 47.0115 139.997 47.5928C139.997 48.1741 140.468 48.6453 141.049 48.6453Z" stroke="white" stroke-miterlimit="10"/>
<path d="M153.321 47.5928C153.32 47.7216 153.281 47.8472 153.208 47.9538C153.136 48.0603 153.033 48.1431 152.914 48.1916C152.795 48.2401 152.664 48.2521 152.537 48.2263C152.411 48.2005 152.295 48.1378 152.205 48.0463C152.114 47.9548 152.053 47.8385 152.028 47.7121C152.003 47.5856 152.016 47.4547 152.066 47.3358C152.115 47.2169 152.199 47.1153 152.306 47.0438C152.414 46.9723 152.54 46.9342 152.668 46.9342C152.755 46.9342 152.84 46.9513 152.919 46.9844C152.999 47.0176 153.071 47.0662 153.132 47.1274C153.193 47.1887 153.241 47.2613 153.273 47.3412C153.305 47.4211 153.322 47.5066 153.321 47.5928Z" stroke="white" stroke-miterlimit="10"/>
<path d="M150.393 47.1812H143.995C143.942 47.1811 143.888 47.1918 143.839 47.2126C143.789 47.2333 143.744 47.2638 143.706 47.3021C143.669 47.3404 143.639 47.3858 143.619 47.4357C143.599 47.4856 143.589 47.539 143.59 47.5928C143.59 47.7004 143.632 47.8036 143.708 47.8796C143.785 47.9557 143.888 47.9985 143.995 47.9985H150.393C150.5 47.9985 150.604 47.9557 150.68 47.8796C150.756 47.8036 150.798 47.7004 150.798 47.5928C150.799 47.539 150.789 47.4856 150.769 47.4357C150.749 47.3858 150.719 47.3404 150.682 47.3021C150.644 47.2638 150.599 47.2333 150.549 47.2126C150.5 47.1918 150.447 47.1811 150.393 47.1812Z" fill="white"/>
<path d="M122.092 50.1682H115.195V53.0965H122.092V50.1682Z" stroke="#263238" stroke-linecap="round" stroke-linejoin="round"/>
<path d="M123.157 50.6621H122.086V52.6084H123.157V50.6621Z" stroke="#263238" stroke-linecap="round" stroke-linejoin="round"/>
<path d="M170.967 52.0381H169.744V53.1024H170.967V52.0381Z" stroke="#263238" stroke-linecap="round" stroke-linejoin="round"/>
<path d="M173.354 50.9679H172.131V53.1023H173.354V50.9679Z" stroke="#263238" stroke-linecap="round" stroke-linejoin="round"/>
<path d="M175.741 49.8977H174.518V53.0964H175.741V49.8977Z" stroke="#263238" stroke-linecap="round" stroke-linejoin="round"/>
<path d="M178.123 48.8275H176.9V53.0964H178.123V48.8275Z" stroke="#263238" stroke-linecap="round" stroke-linejoin="round"/>
<path opacity="0.5" d="M184.126 80.4149H109.192V151.886H184.126V80.4149Z" fill="white"/>
<path d="M178.123 89.0762H115.195V98.4783H178.123V89.0762Z" fill="white" stroke="#263238" stroke-linecap="round" stroke-linejoin="round"/>
<path d="M178.123 106.71H115.195V116.112H178.123V106.71Z" fill="white" stroke="#263238" stroke-linecap="round" stroke-linejoin="round"/>
<path d="M119.117 87.4356V87.6885H117.147V84.9072H119.058V85.1601H117.447V86.1538H118.882V86.4008H117.447V87.4356H119.117Z" fill="#263238"/>
<path d="M123.198 86.4772V87.6884H122.892V86.5124C122.892 86.0714 122.669 85.8421 122.304 85.8421C122.206 85.838 122.108 85.8552 122.017 85.8927C121.926 85.9302 121.845 85.987 121.778 86.0592C121.712 86.1314 121.662 86.2172 121.632 86.3107C121.602 86.4042 121.592 86.5032 121.604 86.6006V87.6943H121.322V86.5183C121.322 86.0773 121.099 85.848 120.734 85.848C120.636 85.8438 120.538 85.8611 120.447 85.8986C120.356 85.9361 120.275 85.9929 120.208 86.0651C120.142 86.1373 120.092 86.2231 120.062 86.3166C120.032 86.4101 120.022 86.509 120.034 86.6065V87.7002H119.752V85.6128H120.023V85.995C120.103 85.865 120.217 85.7593 120.353 85.6889C120.488 85.6185 120.64 85.5861 120.793 85.5952C120.947 85.5822 121.101 85.6177 121.234 85.6968C121.367 85.7759 121.472 85.8945 121.534 86.0362C121.619 85.8948 121.742 85.7791 121.888 85.7015C122.033 85.6239 122.198 85.5871 122.363 85.5952C122.479 85.5874 122.595 85.6052 122.703 85.6475C122.811 85.6898 122.908 85.7554 122.988 85.8396C123.068 85.9239 123.128 86.0247 123.164 86.1349C123.2 86.2451 123.212 86.362 123.198 86.4772Z" fill="#263238"/>
<path d="M125.544 86.3948V87.6884H125.273V87.365C125.194 87.4814 125.085 87.5748 124.958 87.6357C124.831 87.6967 124.691 87.7229 124.55 87.712C124.08 87.712 123.792 87.465 123.792 87.124C123.792 86.7829 123.997 86.536 124.597 86.536H125.244V86.4066C125.244 86.0479 125.038 85.8539 124.656 85.8539C124.403 85.8499 124.156 85.9376 123.962 86.1008L123.833 85.8892C124.077 85.7007 124.377 85.6011 124.685 85.6069C124.796 85.5888 124.91 85.596 125.017 85.6281C125.125 85.6602 125.223 85.7163 125.306 85.7922C125.389 85.8681 125.453 85.9618 125.494 86.0662C125.536 86.1706 125.552 86.2829 125.544 86.3948ZM125.262 87.0652V86.7182H124.603C124.197 86.7182 124.068 86.877 124.068 87.0946C124.068 87.3121 124.262 87.4885 124.597 87.4885C124.735 87.4925 124.871 87.4541 124.987 87.3784C125.103 87.3027 125.192 87.1934 125.244 87.0652H125.262Z" fill="#263238"/>
<path d="M126.244 84.9425C126.245 84.8889 126.267 84.8381 126.306 84.8007C126.344 84.7634 126.396 84.7425 126.449 84.7426C126.502 84.7426 126.553 84.7636 126.591 84.8011C126.628 84.8386 126.649 84.8895 126.649 84.9425C126.649 84.9955 126.628 85.0463 126.591 85.0838C126.553 85.1213 126.502 85.1424 126.449 85.1424C126.396 85.1424 126.344 85.1215 126.306 85.0842C126.267 85.0469 126.245 84.996 126.244 84.9425ZM126.308 85.601H126.591V87.6884H126.308V85.601Z" fill="#263238"/>
<path d="M127.378 84.7426H127.661V87.6826H127.378V84.7426Z" fill="#263238"/>
<path d="M121.063 94.6681V94.9209H119.094V92.1396H121.005V92.3925H119.364V93.3803H120.805V93.6332H119.364V94.6681H121.063Z" fill="#263238"/>
<path d="M125.144 93.6978V94.9091H124.862V93.7331C124.862 93.2921 124.638 93.0628 124.274 93.0628C124.176 93.0578 124.078 93.0742 123.987 93.111C123.897 93.1478 123.815 93.2041 123.748 93.2758C123.682 93.3476 123.631 93.4331 123.601 93.5263C123.571 93.6195 123.562 93.7182 123.574 93.8154V94.915H123.292V93.739C123.292 93.298 123.068 93.0687 122.704 93.0687C122.606 93.0636 122.508 93.0801 122.417 93.1169C122.327 93.1537 122.245 93.2099 122.178 93.2817C122.112 93.3535 122.061 93.439 122.031 93.5322C122.001 93.6254 121.992 93.7241 122.004 93.8213V94.9209H121.716V92.8276H121.986V93.2098C122.068 93.0814 122.182 92.9771 122.318 92.9079C122.453 92.8386 122.605 92.8068 122.757 92.8158C122.911 92.8046 123.064 92.8409 123.197 92.9197C123.329 92.9986 123.434 93.1163 123.498 93.2568C123.583 93.115 123.705 92.999 123.851 92.9213C123.997 92.8437 124.162 92.8072 124.327 92.8158C124.441 92.8107 124.555 92.8306 124.661 92.874C124.767 92.9175 124.862 92.9835 124.94 93.0674C125.018 93.1514 125.076 93.2512 125.111 93.3601C125.147 93.469 125.158 93.5842 125.144 93.6978Z" fill="#263238"/>
<path d="M127.484 93.6155V94.9091H127.214V94.5857C127.136 94.7014 127.028 94.7941 126.902 94.854C126.776 94.914 126.636 94.9391 126.496 94.9267C126.026 94.9267 125.732 94.6797 125.732 94.3387C125.732 93.9977 125.944 93.7507 126.543 93.7507H127.208V93.6272C127.208 93.2685 127.002 93.0745 126.62 93.0745C126.365 93.0712 126.117 93.1588 125.92 93.3215L125.797 93.1098C126.039 92.9178 126.341 92.8178 126.649 92.8275C126.758 92.8133 126.869 92.8235 126.974 92.8573C127.078 92.8912 127.174 92.9479 127.254 93.0233C127.334 93.0988 127.396 93.191 127.436 93.2934C127.476 93.3958 127.492 93.5058 127.484 93.6155ZM127.208 94.2799V93.9389H126.549C126.144 93.9389 126.014 94.0976 126.014 94.3152C126.014 94.5327 126.208 94.7091 126.543 94.7091C126.685 94.7173 126.826 94.6801 126.946 94.603C127.065 94.5258 127.157 94.4127 127.208 94.2799Z" fill="#263238"/>
<path d="M128.184 92.1573C128.185 92.1037 128.208 92.0529 128.246 92.0155C128.285 91.9782 128.336 91.9573 128.39 91.9574C128.417 91.9566 128.443 91.9612 128.468 91.9709C128.493 91.9806 128.516 91.9952 128.535 92.0138C128.554 92.0324 128.569 92.0547 128.58 92.0794C128.59 92.104 128.596 92.1305 128.596 92.1573C128.596 92.2119 128.574 92.2642 128.535 92.3028C128.497 92.3414 128.444 92.3631 128.39 92.3631C128.335 92.3631 128.283 92.3414 128.244 92.3028C128.206 92.2642 128.184 92.2119 128.184 92.1573ZM128.249 92.8158H128.531V94.9091H128.249V92.8158Z" fill="#263238"/>
<path d="M129.325 91.9574H129.601V94.8974H129.325V91.9574Z" fill="#263238"/>
<path d="M132.3 93.6978V94.9091H132.018V93.7331C132.03 93.6462 132.023 93.5576 131.997 93.4738C131.971 93.3901 131.926 93.3132 131.866 93.2489C131.807 93.1846 131.733 93.1346 131.651 93.1023C131.57 93.0701 131.482 93.0566 131.394 93.0628C131.294 93.0544 131.193 93.0683 131.099 93.1034C131.005 93.1385 130.92 93.194 130.85 93.2659C130.779 93.3379 130.726 93.4244 130.693 93.5194C130.66 93.6144 130.649 93.7155 130.659 93.8154V94.915H130.377V92.8217H130.648V93.2098C130.733 93.0788 130.851 92.9728 130.991 92.9026C131.13 92.8323 131.286 92.8003 131.441 92.8099C131.559 92.8005 131.678 92.8172 131.788 92.8589C131.898 92.9007 131.998 92.9663 132.08 93.0512C132.162 93.1361 132.225 93.2381 132.263 93.3499C132.301 93.4617 132.313 93.5805 132.3 93.6978Z" fill="#263238"/>
<path d="M134.652 93.6155V94.9091H134.382V94.5857C134.303 94.7015 134.196 94.7941 134.069 94.8541C133.943 94.9141 133.803 94.9392 133.664 94.9268C133.188 94.9268 132.9 94.6798 132.9 94.3388C132.9 93.9977 133.106 93.7508 133.705 93.7508H134.37V93.6273C134.37 93.2686 134.17 93.0746 133.782 93.0746C133.528 93.0706 133.282 93.1583 133.088 93.3215L132.959 93.1098C133.201 92.9188 133.503 92.8189 133.811 92.8276C133.921 92.8124 134.032 92.8219 134.137 92.8553C134.243 92.8887 134.339 92.9453 134.42 93.0208C134.5 93.0964 134.563 93.189 134.603 93.2919C134.643 93.3948 134.66 93.5054 134.652 93.6155ZM134.37 94.28V93.9389H133.717C133.311 93.9389 133.176 94.0977 133.176 94.3152C133.176 94.5328 133.37 94.7092 133.705 94.7092C133.848 94.7187 133.99 94.6821 134.111 94.6049C134.232 94.5276 134.324 94.4137 134.376 94.28H134.37Z" fill="#263238"/>
<path d="M138.874 93.6979V94.9091H138.592V93.7331C138.592 93.2921 138.368 93.0628 138.004 93.0628C137.906 93.0578 137.808 93.0742 137.717 93.111C137.626 93.1478 137.545 93.2041 137.478 93.2758C137.411 93.3476 137.361 93.4331 137.331 93.5263C137.301 93.6195 137.292 93.7182 137.304 93.8155V94.915H137.004V93.739C137.004 93.298 136.781 93.0687 136.416 93.0687C136.318 93.0636 136.22 93.0801 136.13 93.1169C136.039 93.1537 135.957 93.21 135.89 93.2817C135.824 93.3535 135.774 93.439 135.743 93.5322C135.713 93.6254 135.704 93.7241 135.716 93.8213V94.9209H135.434V92.8276H135.704V93.2098C135.786 93.0814 135.901 92.9771 136.036 92.9079C136.171 92.8386 136.323 92.8068 136.475 92.8159C136.629 92.8029 136.783 92.8384 136.916 92.9175C137.049 92.9966 137.154 93.1152 137.216 93.2569C137.301 93.1155 137.424 92.9998 137.569 92.9222C137.715 92.8446 137.88 92.8078 138.045 92.8159C138.16 92.809 138.275 92.8275 138.383 92.8702C138.49 92.9128 138.587 92.9786 138.666 93.0627C138.745 93.1469 138.805 93.2474 138.84 93.3571C138.876 93.4669 138.888 93.5832 138.874 93.6979Z" fill="#263238"/>
<path d="M141.467 93.9507H139.703C139.718 94.1556 139.814 94.3463 139.969 94.4808C140.125 94.6153 140.327 94.6826 140.532 94.668C140.653 94.6713 140.772 94.6483 140.883 94.6006C140.994 94.5529 141.093 94.4816 141.173 94.3917L141.332 94.574C141.182 94.7315 140.988 94.8412 140.776 94.8894C140.564 94.9376 140.342 94.9222 140.139 94.8449C139.936 94.7677 139.759 94.6322 139.633 94.4553C139.506 94.2785 139.434 94.0681 139.427 93.8507C139.419 93.7128 139.44 93.5748 139.489 93.4455C139.537 93.3161 139.612 93.1981 139.708 93.0988C139.804 92.9995 139.919 92.921 140.047 92.8683C140.174 92.8156 140.312 92.7897 140.45 92.7923C140.587 92.7896 140.724 92.8154 140.851 92.8683C140.978 92.9211 141.093 92.9998 141.188 93.0993C141.283 93.1988 141.356 93.317 141.403 93.4463C141.45 93.5757 141.47 93.7134 141.461 93.8507C141.461 93.8507 141.467 93.9213 141.467 93.9507ZM139.703 93.739H141.185C141.185 93.5425 141.107 93.3541 140.968 93.2151C140.829 93.0762 140.64 92.9981 140.444 92.9981C140.247 92.9981 140.059 93.0762 139.92 93.2151C139.781 93.3541 139.703 93.5425 139.703 93.739Z" fill="#263238"/>
<path d="M145.559 93.8566C145.559 94.5328 145.307 94.9268 144.895 94.9268C144.837 94.93 144.779 94.9213 144.724 94.9011C144.67 94.8809 144.62 94.8497 144.578 94.8094C144.536 94.7691 144.503 94.7207 144.481 94.667C144.458 94.6134 144.447 94.5557 144.448 94.4976C144.366 94.6335 144.249 94.745 144.11 94.8205C143.97 94.896 143.813 94.9327 143.654 94.9268C143.383 94.9268 143.123 94.819 142.931 94.6271C142.739 94.4353 142.631 94.175 142.631 93.9037C142.631 93.6323 142.739 93.3721 142.931 93.1802C143.123 92.9883 143.383 92.8806 143.654 92.8806C143.811 92.8739 143.966 92.909 144.105 92.9824C144.243 93.0558 144.36 93.1647 144.442 93.298V92.9041H144.701V94.4094C144.701 94.6328 144.813 94.7151 144.948 94.7151C145.189 94.7151 145.348 94.4094 145.348 93.8743C145.354 93.6619 145.316 93.4505 145.235 93.2538C145.155 93.0572 145.034 92.8797 144.88 92.7328C144.726 92.5858 144.544 92.4728 144.344 92.4011C144.144 92.3293 143.931 92.3003 143.719 92.3161C143.509 92.3161 143.301 92.3574 143.107 92.4378C142.913 92.5182 142.737 92.636 142.588 92.7845C142.44 92.933 142.322 93.1093 142.241 93.3034C142.161 93.4974 142.12 93.7054 142.12 93.9154C142.12 94.1255 142.161 94.3334 142.241 94.5275C142.322 94.7215 142.44 94.8978 142.588 95.0464C142.737 95.1949 142.913 95.3127 143.107 95.3931C143.301 95.4734 143.509 95.5148 143.719 95.5148C143.984 95.5141 144.245 95.4538 144.483 95.3384L144.548 95.5324C144.289 95.6544 144.005 95.7167 143.719 95.7147C143.242 95.7147 142.784 95.5251 142.447 95.1877C142.109 94.8503 141.92 94.3926 141.92 93.9154C141.92 93.4382 142.109 92.9806 142.447 92.6432C142.784 92.3057 143.242 92.1162 143.719 92.1162C143.957 92.099 144.195 92.1315 144.42 92.2115C144.644 92.2916 144.849 92.4175 145.022 92.5812C145.195 92.7449 145.333 92.9428 145.425 93.1624C145.518 93.382 145.563 93.6184 145.559 93.8566ZM144.442 93.8978C144.451 93.793 144.439 93.6874 144.405 93.5877C144.371 93.488 144.317 93.3965 144.246 93.3188C144.175 93.2412 144.089 93.1793 143.992 93.1369C143.896 93.0945 143.792 93.0726 143.687 93.0726C143.581 93.0726 143.477 93.0945 143.381 93.1369C143.285 93.1793 143.198 93.2412 143.127 93.3188C143.056 93.3965 143.002 93.488 142.968 93.5877C142.934 93.6874 142.922 93.793 142.931 93.8978C142.922 94.0026 142.934 94.1082 142.968 94.2079C143.002 94.3076 143.056 94.3991 143.127 94.4767C143.198 94.5544 143.285 94.6163 143.381 94.6587C143.477 94.7011 143.581 94.723 143.687 94.723C143.792 94.723 143.896 94.7011 143.992 94.6587C144.089 94.6163 144.175 94.5544 144.246 94.4767C144.317 94.3991 144.371 94.3076 144.405 94.2079C144.439 94.1082 144.451 94.0026 144.442 93.8978Z" fill="#263238"/>
<path d="M147.97 93.9506H146.206C146.212 94.0526 146.238 94.1524 146.283 94.2443C146.328 94.3362 146.39 94.4184 146.466 94.4861C146.543 94.5539 146.632 94.6058 146.729 94.6391C146.825 94.6723 146.927 94.6861 147.029 94.6798C147.15 94.683 147.27 94.66 147.38 94.6123C147.491 94.5646 147.59 94.4933 147.67 94.4034L147.829 94.5857C147.679 94.7432 147.486 94.8529 147.274 94.9011C147.061 94.9494 146.84 94.9339 146.636 94.8566C146.433 94.7794 146.257 94.6439 146.13 94.467C146.003 94.2902 145.932 94.0799 145.924 93.8624C145.917 93.7245 145.938 93.5866 145.986 93.4572C146.035 93.3278 146.109 93.2098 146.205 93.1105C146.301 93.0112 146.417 92.9327 146.544 92.88C146.672 92.8273 146.809 92.8014 146.947 92.804C147.085 92.8013 147.221 92.8272 147.348 92.88C147.475 92.9329 147.59 93.0115 147.685 93.111C147.78 93.2105 147.854 93.3287 147.901 93.458C147.948 93.5874 147.967 93.7251 147.958 93.8624C147.958 93.8624 147.97 93.9212 147.97 93.9506ZM146.206 93.7389H147.688C147.688 93.5425 147.61 93.354 147.471 93.2151C147.332 93.0761 147.144 92.9981 146.947 92.9981C146.751 92.9981 146.562 93.0761 146.423 93.2151C146.284 93.354 146.206 93.5425 146.206 93.7389Z" fill="#263238"/>
<path d="M152.004 93.6979V94.9091H151.704V93.7331C151.704 93.2921 151.481 93.0628 151.116 93.0628C151.018 93.0578 150.92 93.0742 150.83 93.111C150.739 93.1478 150.657 93.2041 150.59 93.2758C150.524 93.3476 150.474 93.4331 150.444 93.5263C150.413 93.6195 150.404 93.7182 150.416 93.8155V94.915H150.134V93.739C150.134 93.298 149.911 93.0687 149.546 93.0687C149.448 93.0636 149.35 93.0801 149.26 93.1169C149.169 93.1537 149.087 93.21 149.021 93.2817C148.954 93.3535 148.904 93.439 148.874 93.5322C148.843 93.6254 148.834 93.7241 148.846 93.8213V94.9209H148.564V92.8276H148.835V93.2098C148.915 93.0819 149.029 92.9778 149.163 92.9086C149.297 92.8393 149.448 92.8073 149.599 92.8159C149.754 92.8042 149.908 92.8403 150.042 92.9191C150.175 92.998 150.281 93.1158 150.346 93.2569C150.429 93.1151 150.55 92.9989 150.696 92.9212C150.841 92.8434 151.004 92.807 151.169 92.8159C151.285 92.8081 151.401 92.8259 151.509 92.8682C151.617 92.9105 151.714 92.9761 151.794 93.0603C151.874 93.1446 151.934 93.2454 151.97 93.3556C152.007 93.4658 152.018 93.5827 152.004 93.6979Z" fill="#263238"/>
<path d="M154.344 93.6155V94.9091H154.056V94.5857C153.977 94.701 153.869 94.7933 153.743 94.8533C153.617 94.9132 153.478 94.9385 153.339 94.9268C152.862 94.9268 152.574 94.6798 152.574 94.3388C152.574 93.9977 152.78 93.7508 153.38 93.7508H154.056V93.6273C154.056 93.2686 153.856 93.0746 153.468 93.0746C153.214 93.0706 152.968 93.1583 152.774 93.3215L152.645 93.1098C152.887 92.9188 153.189 92.8189 153.497 92.8276C153.607 92.8114 153.719 92.8202 153.825 92.8532C153.931 92.8862 154.029 92.9426 154.11 93.0182C154.191 93.0939 154.255 93.1868 154.295 93.2902C154.336 93.3936 154.352 93.5048 154.344 93.6155ZM154.062 94.28V93.9389H153.409C153.003 93.9389 152.868 94.0977 152.868 94.3152C152.868 94.5328 153.062 94.7092 153.397 94.7092C153.538 94.7161 153.678 94.6783 153.796 94.6013C153.914 94.5242 154.005 94.4117 154.056 94.28H154.062Z" fill="#263238"/>
<path d="M155.05 92.1572C155.05 92.1165 155.062 92.0767 155.084 92.0429C155.107 92.009 155.139 91.9827 155.177 91.9671C155.214 91.9515 155.256 91.9474 155.296 91.9554C155.336 91.9633 155.372 91.9829 155.401 92.0117C155.43 92.0405 155.449 92.0771 155.457 92.1171C155.465 92.157 155.461 92.1984 155.446 92.236C155.43 92.2736 155.404 92.3057 155.37 92.3283C155.336 92.3509 155.296 92.363 155.255 92.363C155.201 92.363 155.149 92.3413 155.11 92.3027C155.071 92.2641 155.05 92.2118 155.05 92.1572ZM155.108 92.8158H155.391V94.9091H155.108V92.8158Z" fill="#263238"/>
<path d="M156.179 91.9574H156.461V94.8974H156.179V91.9574Z" fill="#263238"/>
<path d="M157.067 94.7092C157.066 94.6812 157.071 94.6533 157.081 94.6272C157.091 94.6012 157.107 94.5775 157.127 94.5577C157.147 94.5379 157.17 94.5223 157.196 94.512C157.222 94.5016 157.25 94.4967 157.278 94.4975C157.334 94.4975 157.388 94.5198 157.428 94.5595C157.468 94.5992 157.49 94.6531 157.49 94.7092C157.49 94.7659 157.468 94.8204 157.428 94.861C157.389 94.9016 157.335 94.9252 157.278 94.9268C157.25 94.9268 157.222 94.9211 157.196 94.9101C157.17 94.8991 157.146 94.883 157.126 94.8627C157.107 94.8424 157.091 94.8184 157.081 94.792C157.071 94.7657 157.066 94.7375 157.067 94.7092Z" fill="#263238"/>
<path d="M157.819 93.8625C157.815 93.7209 157.84 93.5799 157.893 93.4484C157.946 93.3169 158.025 93.1978 158.126 93.0984C158.227 92.999 158.348 92.9216 158.48 92.871C158.612 92.8203 158.754 92.7975 158.895 92.8041C159.057 92.7935 159.218 92.826 159.363 92.8983C159.507 92.9707 159.63 93.0802 159.718 93.2157L159.507 93.3568C159.441 93.2623 159.353 93.1852 159.25 93.1319C159.148 93.0787 159.034 93.051 158.919 93.051C158.715 93.0684 158.525 93.1617 158.386 93.3125C158.248 93.4633 158.171 93.6606 158.171 93.8654C158.171 94.0702 158.248 94.2675 158.386 94.4183C158.525 94.5691 158.715 94.6625 158.919 94.6798C159.034 94.6809 159.148 94.6536 159.251 94.6003C159.353 94.5469 159.441 94.4693 159.507 94.374L159.718 94.5152C159.629 94.6498 159.506 94.7586 159.362 94.8309C159.217 94.9031 159.056 94.9362 158.895 94.9268C158.753 94.9334 158.611 94.9104 158.479 94.8594C158.346 94.8084 158.225 94.7305 158.124 94.6305C158.023 94.5305 157.944 94.4106 157.891 94.2784C157.839 94.1462 157.814 94.0046 157.819 93.8625Z" fill="#263238"/>
<path d="M160.024 93.8625C160.024 93.652 160.087 93.4462 160.204 93.2712C160.321 93.0962 160.487 92.9598 160.681 92.8792C160.876 92.7987 161.09 92.7776 161.296 92.8187C161.503 92.8597 161.692 92.9611 161.841 93.1099C161.99 93.2588 162.091 93.4484 162.132 93.6549C162.173 93.8613 162.152 94.0753 162.072 94.2698C161.991 94.4643 161.855 94.6305 161.68 94.7474C161.505 94.8644 161.299 94.9268 161.088 94.9268C160.947 94.9317 160.807 94.9075 160.675 94.8558C160.544 94.8041 160.425 94.7258 160.325 94.626C160.225 94.5262 160.147 94.4069 160.095 94.2755C160.043 94.1442 160.019 94.0036 160.024 93.8625ZM161.865 93.8625C161.86 93.7077 161.809 93.5578 161.719 93.4318C161.629 93.3058 161.504 93.2094 161.359 93.1547C161.214 93.1001 161.056 93.0898 160.905 93.125C160.754 93.1603 160.617 93.2395 160.512 93.3527C160.406 93.4658 160.336 93.6079 160.311 93.7607C160.286 93.9136 160.307 94.0704 160.372 94.2113C160.436 94.3522 160.541 94.4708 160.672 94.5522C160.804 94.6335 160.957 94.6738 161.112 94.6681C161.215 94.6666 161.317 94.6444 161.411 94.6027C161.505 94.5611 161.59 94.5008 161.66 94.4256C161.73 94.3504 161.785 94.2617 161.82 94.1649C161.855 94.0682 161.87 93.9653 161.865 93.8625Z" fill="#263238"/>
<path d="M166.175 93.6979V94.9091H165.892V93.7331C165.892 93.2921 165.669 93.0628 165.304 93.0628C165.207 93.0578 165.109 93.0742 165.018 93.111C164.927 93.1478 164.846 93.2041 164.779 93.2758C164.712 93.3476 164.662 93.4331 164.632 93.5263C164.602 93.6195 164.593 93.7182 164.605 93.8155V94.915H164.322V93.739C164.322 93.298 164.099 93.0687 163.734 93.0687C163.637 93.0636 163.539 93.0801 163.448 93.1169C163.357 93.1537 163.276 93.21 163.209 93.2817C163.142 93.3535 163.092 93.439 163.062 93.5322C163.032 93.6254 163.023 93.7241 163.035 93.8213V94.9209H162.753V92.8276H163.023V93.2098C163.104 93.0819 163.217 92.9778 163.351 92.9086C163.486 92.8393 163.636 92.8073 163.787 92.8159C163.942 92.8042 164.096 92.8403 164.23 92.9191C164.364 92.998 164.47 93.1158 164.534 93.2569C164.618 93.1155 164.739 92.9997 164.885 92.922C165.03 92.8443 165.193 92.8076 165.357 92.8159C165.472 92.8108 165.586 92.8306 165.692 92.8741C165.797 92.9175 165.893 92.9835 165.97 93.0674C166.048 93.1514 166.107 93.2513 166.142 93.3601C166.177 93.469 166.188 93.5843 166.175 93.6979Z" fill="#263238"/>
<path d="M119.593 111.461L120.087 111.744L119.999 111.908L119.499 111.62V112.208H119.317V111.62L118.817 111.908L118.723 111.744L119.223 111.461L118.723 111.185L118.817 111.014L119.317 111.308V110.72H119.499V111.308L119.999 111.014L120.087 111.185L119.593 111.461Z" fill="#263238"/>
<path d="M121.21 111.461L121.704 111.744L121.61 111.908L121.116 111.62V112.208H120.928V111.62L120.434 111.908L120.334 111.744L120.834 111.461L120.334 111.185L120.434 111.014L120.928 111.308V110.72H121.128V111.308L121.622 111.014L121.716 111.185L121.21 111.461Z" fill="#263238"/>
<path d="M122.821 111.461L123.315 111.744L123.221 111.908L122.727 111.62V112.208H122.545V111.62L122.051 111.908L121.957 111.744L122.451 111.461L121.957 111.185L122.051 111.014L122.545 111.308V110.72H122.727V111.308L123.221 111.014L123.315 111.185L122.821 111.461Z" fill="#263238"/>
<path d="M124.433 111.461L124.926 111.744L124.838 111.908L124.338 111.62V112.208H124.156V111.62L123.656 111.908L123.562 111.744L124.062 111.461L123.562 111.185L123.656 111.014L124.156 111.308V110.72H124.338V111.308L124.838 111.014L124.926 111.185L124.433 111.461Z" fill="#263238"/>
<path d="M126.05 111.461L126.544 111.744L126.449 111.908L125.956 111.62V112.208H125.767V111.62L125.273 111.908L125.173 111.744L125.673 111.461L125.173 111.185L125.273 111.014L125.767 111.308V110.72H125.956V111.308L126.449 111.014L126.544 111.185L126.05 111.461Z" fill="#263238"/>
<path d="M127.661 111.461L128.155 111.744L128.061 111.908L127.567 111.62V112.208H127.384V111.62L126.89 111.908L126.796 111.744L127.29 111.461L126.796 111.185L126.89 111.014L127.384 111.308V110.72H127.596V111.308L128.09 111.014L128.184 111.185L127.661 111.461Z" fill="#263238"/>
<path d="M129.272 111.461L129.766 111.744L129.678 111.908L129.178 111.62V112.208H128.995V111.62L128.496 111.908L128.402 111.744L128.901 111.461L128.402 111.185L128.496 111.014L128.995 111.308V110.72H129.178V111.308L129.678 111.014L129.766 111.185L129.272 111.461Z" fill="#263238"/>
<path d="M130.889 111.461L131.383 111.744L131.289 111.908L130.789 111.62V112.208H130.607V111.62L130.113 111.908L130.013 111.744L130.512 111.461L130.013 111.185L130.113 111.014L130.607 111.308V110.72H130.789V111.308L131.289 111.014L131.383 111.185L130.889 111.461Z" fill="#263238"/>
<path d="M132.5 111.461L132.994 111.744L132.9 111.908L132.406 111.62V112.208H132.224V111.62L131.73 111.908L131.636 111.744L132.129 111.461L131.636 111.185L131.73 111.014L132.224 111.308V110.72H132.406V111.308L132.9 111.014L132.994 111.185L132.5 111.461Z" fill="#263238"/>
<path d="M134.111 111.461L134.605 111.744L134.517 111.908L134.017 111.62V112.208H133.835V111.62L133.335 111.908L133.241 111.744L133.735 111.461L133.241 111.185L133.335 111.014L133.835 111.308V110.72H134.017V111.308L134.517 111.014L134.605 111.185L134.111 111.461Z" fill="#263238"/>
<path d="M135.728 111.461L136.216 111.744L136.128 111.908L135.628 111.62V112.208H135.446V111.62L134.952 111.908L134.852 111.744L135.352 111.461L134.852 111.185L134.952 111.014L135.446 111.308V110.72H135.628V111.308L136.128 111.014L136.216 111.185L135.728 111.461Z" fill="#263238"/>
<path d="M119.329 103.488C119.329 104.076 118.899 104.441 118.194 104.441H117.447V105.317H117.147V102.547H118.188C118.899 102.547 119.329 102.9 119.329 103.488ZM119.035 103.488C119.035 103.041 118.741 102.788 118.182 102.788H117.447V104.182H118.188C118.741 104.194 119.035 103.941 119.035 103.488Z" fill="#263238"/>
<path d="M121.463 104.035V105.328H121.193V105.005C121.113 105.121 121.004 105.213 120.877 105.273C120.75 105.333 120.609 105.358 120.469 105.346C119.999 105.346 119.711 105.105 119.711 104.758C119.711 104.411 119.917 104.17 120.517 104.17H121.181V104.047C121.181 103.688 120.975 103.494 120.593 103.494C120.339 103.49 120.093 103.578 119.899 103.741L119.77 103.529C120.012 103.338 120.314 103.238 120.622 103.247C120.732 103.232 120.843 103.241 120.948 103.275C121.054 103.308 121.15 103.365 121.231 103.44C121.311 103.516 121.374 103.608 121.414 103.711C121.455 103.814 121.471 103.925 121.463 104.035ZM121.181 104.699V104.358H120.54C120.134 104.358 120.005 104.517 120.005 104.735C120.005 104.952 120.199 105.129 120.534 105.129C120.673 105.133 120.81 105.094 120.926 105.017C121.042 104.94 121.131 104.829 121.181 104.699Z" fill="#263238"/>
<path d="M121.939 105.093L122.063 104.87C122.282 105.024 122.542 105.106 122.81 105.105C123.204 105.105 123.368 104.97 123.368 104.758C123.368 104.217 122.016 104.646 122.016 103.817C122.016 103.476 122.31 103.229 122.839 103.229C123.099 103.226 123.355 103.293 123.58 103.423L123.456 103.647C123.273 103.528 123.058 103.466 122.839 103.47C122.463 103.47 122.298 103.617 122.298 103.817C122.298 104.405 123.651 103.958 123.651 104.758C123.651 105.123 123.333 105.346 122.786 105.346C122.484 105.356 122.187 105.267 121.939 105.093Z" fill="#263238"/>
<path d="M123.88 105.093L124.009 104.87C124.225 105.024 124.485 105.106 124.75 105.105C125.15 105.105 125.338 104.97 125.338 104.758C125.338 104.217 123.986 104.646 123.986 103.817C123.986 103.476 124.28 103.229 124.815 103.229C125.073 103.225 125.327 103.292 125.55 103.423L125.426 103.647C125.251 103.533 125.047 103.472 124.838 103.47C124.456 103.47 124.291 103.617 124.291 103.817C124.291 104.405 125.644 103.958 125.644 104.758C125.644 105.123 125.326 105.346 124.785 105.346C124.463 105.369 124.143 105.279 123.88 105.093Z" fill="#263238"/>
<path d="M129.142 103.241L128.349 105.328H128.084L127.425 103.617L126.767 105.328H126.496L125.714 103.241H125.985L126.638 105.005L127.308 103.241H127.555L128.219 105.005L128.884 103.241H129.142Z" fill="#263238"/>
<path d="M129.295 104.282C129.295 104.071 129.358 103.866 129.475 103.691C129.592 103.516 129.758 103.379 129.952 103.299C130.147 103.218 130.361 103.197 130.567 103.238C130.774 103.279 130.963 103.38 131.112 103.529C131.261 103.678 131.362 103.868 131.403 104.074C131.444 104.281 131.423 104.495 131.343 104.689C131.262 104.884 131.126 105.05 130.951 105.167C130.776 105.284 130.57 105.346 130.36 105.346C130.218 105.351 130.078 105.327 129.947 105.275C129.815 105.223 129.696 105.145 129.596 105.045C129.496 104.945 129.418 104.826 129.366 104.695C129.315 104.563 129.29 104.423 129.295 104.282ZM131.136 104.282C131.136 104.076 131.054 103.879 130.908 103.733C130.763 103.587 130.565 103.506 130.36 103.506C130.154 103.506 129.956 103.587 129.811 103.733C129.665 103.879 129.583 104.076 129.583 104.282C129.583 104.488 129.665 104.685 129.811 104.831C129.956 104.976 130.154 105.058 130.36 105.058C130.565 105.058 130.763 104.976 130.908 104.831C131.054 104.685 131.136 104.488 131.136 104.282Z" fill="#263238"/>
<path d="M133.053 103.223V103.488H132.982C132.883 103.484 132.784 103.501 132.692 103.539C132.6 103.577 132.518 103.635 132.451 103.709C132.385 103.782 132.335 103.87 132.306 103.965C132.276 104.06 132.268 104.16 132.282 104.258V105.323H132V103.235H132.3V103.641C132.371 103.505 132.48 103.394 132.614 103.319C132.747 103.245 132.9 103.212 133.053 103.223Z" fill="#263238"/>
<path d="M135.446 102.383V105.323H135.175V104.911C135.092 105.048 134.973 105.16 134.831 105.235C134.689 105.311 134.53 105.347 134.37 105.34C134.102 105.32 133.852 105.2 133.669 105.003C133.486 104.806 133.385 104.547 133.385 104.279C133.385 104.01 133.486 103.752 133.669 103.555C133.852 103.358 134.102 103.237 134.37 103.218C134.526 103.212 134.682 103.246 134.821 103.319C134.96 103.391 135.078 103.498 135.164 103.629V102.377L135.446 102.383ZM135.169 104.282C135.161 104.13 135.109 103.985 135.019 103.862C134.929 103.74 134.805 103.647 134.663 103.595C134.521 103.542 134.366 103.533 134.218 103.567C134.07 103.602 133.936 103.679 133.832 103.789C133.727 103.899 133.657 104.037 133.63 104.186C133.604 104.335 133.621 104.489 133.681 104.629C133.741 104.768 133.84 104.887 133.967 104.971C134.093 105.054 134.242 105.099 134.393 105.099C134.499 105.101 134.604 105.081 134.702 105.04C134.8 104.999 134.888 104.938 134.961 104.861C135.034 104.784 135.09 104.693 135.126 104.593C135.162 104.494 135.177 104.388 135.169 104.282Z" fill="#263238"/>
<path d="M166.175 126.42V129.207H165.887V126.679H165.228V126.42H166.175Z" fill="#263238"/>
<path d="M168.65 126.42V129.207H168.362V126.679H167.703V126.42H168.65Z" fill="#263238"/>
<path d="M170.079 126.42V129.207H169.797V126.679H169.138V126.42H170.079Z" fill="#263238"/>
<path d="M172.643 128.937V129.195H170.691V128.99L171.867 127.855C172.178 127.549 172.243 127.361 172.243 127.173C172.243 126.849 172.014 126.649 171.59 126.649C171.448 126.64 171.306 126.664 171.175 126.718C171.043 126.772 170.926 126.855 170.832 126.961L170.626 126.785C170.752 126.65 170.905 126.545 171.076 126.476C171.246 126.407 171.43 126.376 171.614 126.385C172.202 126.385 172.537 126.673 172.537 127.137C172.528 127.307 172.482 127.473 172.403 127.623C172.324 127.773 172.213 127.904 172.078 128.008L171.108 128.937H172.643Z" fill="#263238"/>
<path d="M173.772 126.42V129.207H173.46V126.679H172.807V126.42H173.772Z" fill="#263238"/>
<path d="M158.848 190.383H134.47C132.958 190.381 131.508 189.78 130.438 188.71C129.369 187.641 128.768 186.191 128.766 184.679C128.766 183.166 129.367 181.715 130.436 180.644C131.506 179.573 132.956 178.971 134.47 178.97H158.848C159.598 178.97 160.34 179.117 161.032 179.404C161.725 179.691 162.354 180.112 162.883 180.642C163.413 181.172 163.833 181.802 164.119 182.495C164.406 183.187 164.553 183.93 164.552 184.679C164.552 186.192 163.951 187.643 162.881 188.712C161.812 189.782 160.361 190.383 158.848 190.383Z" fill="#263238"/>
<path d="M109.774 172.425C110.656 185.979 104.376 201.073 104.376 201.073L70.4542 191.523L64.5389 189.854C70.4189 181.686 73.2178 165.599 71.6831 152.58C71.5655 151.598 71.4949 150.675 71.442 149.793C70.854 139.056 75.3169 135.916 79.086 131.171C83.202 126.032 92.363 106.628 92.363 102.036C92.363 97.4434 103.858 86.2009 101.301 73.4413C101.301 73.4413 104.776 71.2833 108.268 73.0532C109.856 73.8529 111.438 75.4581 112.714 78.4334C115.707 85.4247 111.502 105.187 107.927 110.033L101.042 138.539C101.042 138.539 103.365 142.543 105.646 149.811C107.914 157.159 109.299 164.75 109.774 172.425Z" fill="white"/>
<path opacity="0.4" d="M71.442 149.793C73.3648 155.056 75.4051 158.613 75.2287 165.987C75.0523 173.36 71.1127 184.709 72.2358 190.606C71.5942 190.795 70.9952 191.107 70.4718 191.523L64.5565 189.854C70.4365 181.686 73.2354 165.599 71.7007 152.58C71.5655 151.598 71.4949 150.675 71.442 149.793Z" fill="#90CAF9"/>
<path opacity="0.4" d="M107.927 110.032L101.042 138.539C101.042 138.539 103.365 142.543 105.646 149.811C100.983 142.296 97.02 140.05 97.02 140.05C100.125 136.328 102.518 109.103 102.518 109.103C102.518 109.103 112.249 97.6668 111.338 85.701C111.045 81.3405 110.007 77.0626 108.268 73.0531C109.856 73.8528 111.438 75.458 112.714 78.4333C115.707 85.4246 111.502 105.187 107.927 110.032Z" fill="#90CAF9"/>
<path d="M64.5389 189.853C70.4189 181.686 73.2178 165.598 71.689 152.58C70.1602 139.562 75.0053 136.304 79.0919 131.165C83.1785 126.026 92.363 106.628 92.363 102.03C92.363 97.4316 103.853 86.2067 101.301 73.4412C101.301 73.4412 108.633 68.896 112.714 78.4333C115.707 85.4305 111.502 105.187 107.927 110.038L101.048 138.539C101.048 138.539 108.392 151.21 109.774 172.425C110.656 185.979 104.376 201.078 104.376 201.078" stroke="#263238" stroke-linecap="round" stroke-linejoin="round"/>
<path d="M87.2122 211.921C87.2122 211.921 94.9326 216.672 99.4367 224.187" stroke="#263238" stroke-linecap="round" stroke-linejoin="round"/>
<path d="M108.898 220.912C108.898 220.912 102.247 221.858 96.2379 214.667C92.3865 210.063 80.6912 207.982 78.0099 195.939" stroke="#263238" stroke-linecap="round" stroke-linejoin="round"/>
<path opacity="0.2" d="M205.197 256.848C188.174 248.704 198.482 242.177 175.062 232.069C151.642 221.962 151.407 213.324 154.229 193.461C157.052 173.599 154.817 152.472 161.626 150.678C168.435 148.885 156.299 121.49 164.237 111.806L203.304 187.799L205.197 256.848Z" fill="black" fill-opacity="0.7"/>
<path d="M268.624 256.054C267.825 253.767 267.013 251.268 266.384 248.998C265.573 246.058 264.938 243.706 263.444 240.972C263.209 240.537 262.956 240.078 262.674 239.584C261.08 236.744 258.899 232.857 257.623 228.083C256.765 224.866 257.623 216.946 258.423 209.267C259.011 203.751 259.546 198.547 259.387 195.596L259.34 194.549C258.94 186.829 258.105 170.764 256.4 166.325C254.724 162.044 253.16 161.404 250.308 160.263C250.014 160.133 249.72 160.016 249.379 159.875C248.309 159.428 246.486 158.487 244.387 157.399C239.654 154.947 233.762 151.896 230.769 151.519C227.969 151.205 225.137 151.336 222.378 151.907C218.692 149.079 212.418 145.439 210.548 145.363C209.019 145.286 205.679 146.245 204.08 146.745L203.274 147.003C202.261 146.218 201.188 145.514 200.064 144.898C199.987 144.857 199.911 144.828 199.846 144.798C197.77 143.946 194.636 143.916 192.925 143.963C192.408 143.963 192.002 144.016 191.82 144.034C188.592 139.065 185.417 134.12 184.035 131.951C181.154 127.388 172.234 108.613 172.145 108.431C172.135 108.406 172.119 108.385 172.099 108.369C172.078 108.352 172.054 108.341 172.028 108.337C172.001 108.333 171.973 108.333 171.946 108.337C171.252 108.137 166.142 106.837 164.09 111.788C161.844 117.18 165.048 129.016 168.176 133.315C169.682 135.385 173.792 143.828 177.961 152.566C176.891 153.56 168.329 161.468 164.172 162.944C160.768 164.149 161.567 181.601 162.208 195.613C162.449 200.788 162.649 205.239 162.59 207.914C162.473 213.089 171.887 220.215 181.012 227.107C189.244 233.351 197.782 239.802 198.782 244.488C199.058 245.805 199.846 246.875 200.787 248.081C202.357 250.08 204.38 252.438 205.238 256.901C205.491 258.241 207.643 259.993 209.354 262.857H271.118C270.6 261.463 269.624 258.923 268.624 256.054ZM182.971 163.091C185.963 169.359 187.816 173.087 188.263 173.505C188.709 173.922 188.68 175.909 188.668 177.844C188.604 179.537 188.663 181.233 188.845 182.918C188.116 183.559 183.511 187.752 182.582 191.15L178.672 186.546L177.684 172.099C178.272 171.476 182.294 167.225 182.971 163.091Z" fill="white"/>
<path opacity="0.4" d="M251.258 203.042C252.711 216.596 252.728 223.946 254.357 227.868C257.109 234.488 261.16 235.829 261.16 235.829C259.813 233.263 258.743 230.56 257.967 227.768C257.115 224.551 257.967 216.631 258.767 208.952C259.355 203.436 259.896 198.227 259.743 195.275L259.69 194.228C259.29 186.514 258.455 170.449 256.75 166.004C255.08 161.723 253.51 161.083 250.659 159.936C250.365 159.812 250.071 159.695 249.73 159.554C248.659 159.107 246.842 158.166 244.737 157.078C240.004 154.626 234.112 151.575 231.119 151.198C228.32 150.88 225.487 151.011 222.729 151.586C219.042 148.758 212.768 145.118 210.898 145.042C209.369 144.965 205.224 146.171 203.613 146.682C210.669 152.439 220.829 159.618 220.829 159.618C228.867 161.218 227.838 164.705 231.09 166.674C234.03 168.438 236.841 163.276 239.322 162.823C242.568 162.235 246.254 165.657 246.09 169.808C245.584 181.245 250.012 191.406 251.258 203.042Z" fill="#90CAF9"/>
<path opacity="0.4" d="M210.627 161.041C210.627 161.041 204.259 155.749 201.219 153.985C198.18 152.221 197.691 146.142 200.091 144.666C200.182 144.611 200.284 144.579 200.39 144.572L200.173 144.472C198.097 143.619 194.963 143.584 193.252 143.637C196.78 150.205 199.597 155.244 200.355 156.349C202.913 160.042 210.627 161.041 210.627 161.041Z" fill="#90CAF9"/>
<path opacity="0.4" d="M200.611 243.665C200.881 242.259 198.564 238.143 197.547 236.473C195.236 232.663 168.406 208.955 172.292 202.628C176.179 196.301 179.731 200.982 182.189 201.393C183.953 201.687 188.798 198.8 188.774 198.559C188.221 193.685 192.72 190.515 192.72 190.515C192.72 190.515 192.308 171.111 191.273 171.441C190.238 171.77 177.855 142.305 177.855 142.305C177.855 142.305 164.766 124.9 165.507 116.78C166.248 108.66 171.928 108.519 171.928 108.519V108.301C171.234 108.101 166.124 106.802 164.072 111.753C161.826 117.145 165.031 128.981 168.159 133.279C169.664 135.349 173.774 143.793 177.943 152.531C176.873 153.524 168.312 161.433 164.155 162.909C160.75 164.114 161.55 181.566 162.191 195.578C162.432 200.752 162.632 205.204 162.573 207.879C162.455 213.053 171.869 220.18 180.995 227.071C189.227 233.316 197.765 239.766 198.764 244.453C199.041 245.77 199.829 246.84 200.769 248.045C200.582 246.593 200.529 245.127 200.611 243.665ZM182.971 163.109C185.963 169.377 187.816 173.105 188.263 173.522C188.709 173.94 188.68 175.927 188.668 177.862C188.604 179.555 188.663 181.251 188.845 182.936C188.116 183.577 183.512 187.769 182.582 191.168L178.672 186.564L177.684 172.117C178.272 171.476 182.294 167.225 182.971 163.091V163.109Z" fill="#90CAF9"/>
<path d="M206.62 161.292C203.992 160.465 201.684 158.847 200.011 156.658C197.324 153.06 186.769 136.666 183.847 132.045C180.924 127.423 171.928 108.519 171.928 108.519C171.928 108.519 166.401 106.667 164.249 111.829C162.097 116.992 165.042 128.658 168.318 133.15C171.593 137.642 187.157 172.235 188.392 173.352C189.627 174.469 187.774 183.701 190.25 185.935" stroke="#263238" stroke-linecap="round" stroke-linejoin="round"/>
<path d="M189.418 182.674C189.418 182.674 183.715 187.643 183.044 191.271L178.811 186.29L177.811 171.696C177.811 171.696 182.921 166.58 183.203 162.029" stroke="#263238" stroke-linecap="round" stroke-linejoin="round"/>
<path d="M178.534 152.221C178.534 152.221 169.062 161.159 164.558 162.753C160.054 164.346 163.341 197.833 163.117 207.529C162.894 217.225 197.192 234.118 199.297 244.044C200.132 247.995 203.589 248.8 205.7 256.392" stroke="#263238" stroke-linecap="round" stroke-linejoin="round"/>
<path d="M192.017 143.901C192.017 143.901 197.174 143.437 200.079 144.648C202.983 145.859 214.779 155.991 217.625 157.925C220.471 159.86 224.751 160.595 225.563 162.682" stroke="#263238" stroke-linecap="round" stroke-linejoin="round"/>
<path d="M203.548 146.888C203.548 146.888 208.84 145.124 210.863 145.224C212.885 145.324 220.494 149.811 223.905 152.809C226.518 155.128 229.527 156.956 232.789 158.207" stroke="#263238" stroke-linecap="round" stroke-linejoin="round"/>
<path d="M222.664 151.792C225.426 151.198 228.266 151.061 231.072 151.387C235.376 151.975 246.184 158.325 249.63 159.76C253.075 161.194 254.722 161.459 256.533 166.092C258.344 170.726 259.173 188.342 259.537 195.304C259.902 202.266 256.274 222.205 257.773 227.815C259.273 233.424 261.977 237.752 263.618 240.751" stroke="#263238" stroke-linecap="round" stroke-linejoin="round"/>
<path d="M177.811 171.696C177.811 171.696 176.988 168.256 175.812 167.815" stroke="#263238" stroke-linecap="round" stroke-linejoin="round"/>
<path d="M178.811 186.29C179.207 188.295 179.744 190.27 180.416 192.2C181.263 194.287 179.946 197.309 179.946 197.309" stroke="#263238" stroke-linecap="round" stroke-linejoin="round"/>
<path d="M183.044 191.271C182.909 194.61 186.231 198.515 187.037 197.962" stroke="#263238" stroke-linecap="round" stroke-linejoin="round"/>
<path d="M199.961 171.696C199.961 171.696 203.53 165.922 206.952 165.64C210.375 165.357 214.326 170.214 216.437 169.756C218.548 169.297 221.206 166.192 224.757 165.64C228.309 165.087 229.973 166.78 232.789 166.921C235.606 167.063 235.894 163.299 239.257 162.805C242.621 162.312 243.767 163.981 246.025 164.417C248.283 164.852 248.848 163.07 250.676 162.065" stroke="#263238" stroke-linecap="round" stroke-linejoin="round"/>
</g>
<defs>
<clipPath id="clip0_6_908">
<rect width="294" height="294" fill="white"/>
</clipPath>
</defs>
</svg>
