<svg width="219" height="219" viewBox="0 0 219 219" fill="none" xmlns="http://www.w3.org/2000/svg">
<path d="M145.639 27.9575C136.082 33.4237 129.341 42.6174 121.173 49.9977C111.013 59.1412 98.6465 65.4813 85.2918 68.3937C74.3418 70.7632 62.9012 70.7983 52.3498 74.5257C31.7638 81.7483 17.6646 103.184 17.3098 124.979C16.955 146.774 29.3548 167.903 47.58 179.852C53.787 183.923 60.5821 187.018 67.728 189.028C81.1308 192.799 95.3439 192.632 109.193 191.191C133.117 188.699 158.197 175.112 173.277 155.959C179.999 147.398 185.681 138.069 190.202 128.168C197.67 111.887 201.912 94.3128 202.693 76.4178C203.328 61.0878 202.693 44.0934 190.53 32.92C178.367 21.7467 159.896 19.7976 145.639 27.9575Z" fill="#91C4F0"/>
<path opacity="0.7" d="M145.639 27.9575C136.082 33.4237 129.341 42.6174 121.173 49.9977C111.013 59.1412 98.6465 65.4813 85.2918 68.3937C74.3418 70.7632 62.9012 70.7983 52.3498 74.5257C31.7638 81.7483 17.6646 103.184 17.3098 124.979C16.955 146.774 29.3548 167.903 47.58 179.852C53.787 183.923 60.5821 187.018 67.728 189.028C81.1308 192.799 95.3439 192.632 109.193 191.191C133.117 188.699 158.197 175.112 173.277 155.959C179.999 147.398 185.681 138.069 190.202 128.168C197.67 111.887 201.912 94.3128 202.693 76.4178C203.328 61.0878 202.693 44.0934 190.53 32.92C178.367 21.7467 159.896 19.7976 145.639 27.9575Z" fill="white"/>
<path d="M120.494 203.473C163.874 203.473 199.04 194.001 199.04 182.318C199.04 170.634 163.874 161.162 120.494 161.162C77.1138 161.162 41.9473 170.634 41.9473 182.318C41.9473 194.001 77.1138 203.473 120.494 203.473Z" fill="#91C4F0"/>
<path opacity="0.5" d="M120.494 203.473C163.874 203.473 199.04 194.001 199.04 182.318C199.04 170.634 163.874 161.162 120.494 161.162C77.1138 161.162 41.9473 170.634 41.9473 182.318C41.9473 194.001 77.1138 203.473 120.494 203.473Z" fill="white"/>
<path d="M130.068 29.9154H37.7249C35.5599 29.9154 33.8048 31.6705 33.8048 33.8355V85.6027C33.8048 87.7677 35.5599 89.5228 37.7249 89.5228H130.068C132.233 89.5228 133.989 87.7677 133.989 85.6027V33.8355C133.989 31.6705 132.233 29.9154 130.068 29.9154Z" fill="white"/>
<path d="M133.989 33.8356V35.3861H33.8048V33.8356C33.8048 32.7939 34.2171 31.7945 34.9516 31.0559C35.6862 30.3172 36.6832 29.8993 37.7249 29.8936H130.086C130.601 29.8953 131.111 29.9987 131.587 30.1979C132.062 30.3971 132.493 30.6881 132.856 31.0544C133.218 31.4206 133.505 31.8548 133.699 32.332C133.894 32.8093 133.992 33.3202 133.989 33.8356Z" fill="#91C4F0"/>
<path d="M130.068 29.9154H37.7249C35.5599 29.9154 33.8048 31.6705 33.8048 33.8355V85.6027C33.8048 87.7677 35.5599 89.5228 37.7249 89.5228H130.068C132.233 89.5228 133.989 87.7677 133.989 85.6027V33.8355C133.989 31.6705 132.233 29.9154 130.068 29.9154Z" stroke="#263238" stroke-linecap="round" stroke-linejoin="round"/>
<path d="M133.989 33.8356V35.3861H33.8048V33.8356C33.8048 32.7939 34.2171 31.7945 34.9516 31.0559C35.6862 30.3172 36.6832 29.8993 37.7249 29.8936H130.086C130.601 29.8953 131.111 29.9987 131.587 30.1979C132.062 30.3971 132.493 30.6881 132.856 31.0544C133.218 31.4206 133.505 31.8548 133.699 32.332C133.894 32.8093 133.992 33.3202 133.989 33.8356Z" stroke="#263238" stroke-linecap="round" stroke-linejoin="round"/>
<path d="M45.0571 32.6485C45.0579 32.8471 44.9998 33.0415 44.8901 33.207C44.7805 33.3725 44.6241 33.5017 44.4409 33.5783C44.2577 33.6549 44.0559 33.6754 43.8611 33.6372C43.6662 33.599 43.4871 33.5038 43.3464 33.3637C43.2056 33.2236 43.1097 33.0449 43.0706 32.8502C43.0316 32.6555 43.0512 32.4536 43.127 32.2701C43.2027 32.0866 43.3313 31.9297 43.4963 31.8192C43.6614 31.7088 43.8555 31.6499 44.054 31.6499C44.3193 31.6499 44.5738 31.755 44.7617 31.9421C44.9497 32.1293 45.0559 32.3833 45.0571 32.6485Z" fill="#263238"/>
<path d="M50.2912 32.6485C50.2921 32.8471 50.234 33.0415 50.1243 33.207C50.0146 33.3725 49.8583 33.5017 49.6751 33.5783C49.4919 33.6549 49.29 33.6754 49.0952 33.6372C48.9003 33.599 48.7212 33.5038 48.5805 33.3637C48.4398 33.2236 48.3438 33.0449 48.3048 32.8502C48.2657 32.6555 48.2853 32.4536 48.3611 32.2701C48.4369 32.0866 48.5654 31.9297 48.7305 31.8192C48.8955 31.7088 49.0896 31.6499 49.2882 31.6499C49.5534 31.6499 49.8079 31.755 49.9959 31.9421C50.1838 32.1293 50.29 32.3833 50.2912 32.6485Z" fill="#263238"/>
<path d="M54.5222 33.6515C55.0761 33.6515 55.5252 33.2025 55.5252 32.6485C55.5252 32.0946 55.0761 31.6455 54.5222 31.6455C53.9682 31.6455 53.5192 32.0946 53.5192 32.6485C53.5192 33.2025 53.9682 33.6515 54.5222 33.6515Z" fill="#263238"/>
<path d="M39.0083 65.1964H41.6013" stroke="#263238" stroke-linecap="round" stroke-linejoin="round"/>
<path d="M39.0083 70.207H41.6013" stroke="#263238" stroke-linecap="round" stroke-linejoin="round"/>
<path d="M39.0083 75.2222H41.6013" stroke="#263238" stroke-linecap="round" stroke-linejoin="round"/>
<path d="M39.0083 80.2329H41.6013" stroke="#263238" stroke-linecap="round" stroke-linejoin="round"/>
<path d="M47.3171 84.0172V82.0024" stroke="#263238" stroke-linecap="round" stroke-linejoin="round"/>
<path d="M51.4255 84.0172V82.0024" stroke="#263238" stroke-linecap="round" stroke-linejoin="round"/>
<path d="M55.5339 84.0172V82.0024" stroke="#263238" stroke-linecap="round" stroke-linejoin="round"/>
<path d="M59.6469 84.0172V82.0024" stroke="#263238" stroke-linecap="round" stroke-linejoin="round"/>
<path d="M63.7552 84.0172V82.0024" stroke="#263238" stroke-linecap="round" stroke-linejoin="round"/>
<path d="M67.8636 84.0172V82.0024" stroke="#263238" stroke-linecap="round" stroke-linejoin="round"/>
<path d="M71.9722 84.0172V82.0024" stroke="#263238" stroke-linecap="round" stroke-linejoin="round"/>
<path d="M76.085 84.0172V82.0024" stroke="#263238" stroke-linecap="round" stroke-linejoin="round"/>
<path d="M80.1934 84.0172V82.0024" stroke="#263238" stroke-linecap="round" stroke-linejoin="round"/>
<path d="M84.3019 84.0172V82.0024" stroke="#263238" stroke-linecap="round" stroke-linejoin="round"/>
<path d="M88.4103 84.0172V82.0024" stroke="#263238" stroke-linecap="round" stroke-linejoin="round"/>
<path d="M92.5231 84.0172V82.0024" stroke="#263238" stroke-linecap="round" stroke-linejoin="round"/>
<path d="M96.6316 84.0172V82.0024" stroke="#263238" stroke-linecap="round" stroke-linejoin="round"/>
<path d="M100.74 84.0172V82.0024" stroke="#263238" stroke-linecap="round" stroke-linejoin="round"/>
<path d="M104.848 84.0172V82.0024" stroke="#263238" stroke-linecap="round" stroke-linejoin="round"/>
<path d="M108.804 84.0172V82.0024" stroke="#263238" stroke-linecap="round" stroke-linejoin="round"/>
<path d="M112.759 84.0172V82.0024" stroke="#263238" stroke-linecap="round" stroke-linejoin="round"/>
<path d="M116.709 84.0172V82.0024" stroke="#263238" stroke-linecap="round" stroke-linejoin="round"/>
<path d="M127.169 62.1303V81.6038C127.169 82.9397 125.811 84.0172 124.138 84.0172H42.0479C41.5481 84.0349 41.0509 83.937 40.5951 83.7311C40.1393 83.5252 39.7371 83.2169 39.4199 82.8302C39.1459 82.4791 38.9923 82.049 38.9819 81.6038V62.1303C38.9819 60.8163 40.3397 59.7169 42.0129 59.7169H124.138C125.811 59.7169 127.169 60.7944 127.169 62.1303Z" stroke="#91C4F0" stroke-linecap="round" stroke-linejoin="round"/>
<path d="M78 48.8385L87.6316 43L84.9686 53.1003L83.2691 48.4268L78 48.8385Z" fill="#263238"/>
<path d="M186.689 136.008H32.6485L15.3826 151.36" stroke="#263238" stroke-linecap="round" stroke-linejoin="round"/>
<path d="M32.7449 125.259V95.4095" stroke="#263238" stroke-linecap="round" stroke-linejoin="round"/>
<path d="M32.7449 134.273V128.5" stroke="#263238" stroke-linecap="round" stroke-linejoin="round"/>
<path d="M177.416 63.3874C177.416 63.3874 177.416 61.5828 174.889 59.06C172.362 56.5371 170.741 55.0917 170.741 55.0917C170.741 55.0917 169.475 59.2395 171.823 61.7668C173.547 63.5471 175.418 65.1792 177.416 66.6461V63.3874Z" fill="#91C4F0"/>
<path d="M173.75 74.6572C173.75 74.6572 173.75 72.8526 171.223 70.3253C168.696 67.7981 167.075 66.3571 167.075 66.3571C167.075 66.3571 165.814 70.5049 168.157 73.0322C169.883 74.8115 171.754 76.445 173.75 77.9159V74.6572Z" fill="#91C4F0"/>
<path d="M177.254 66.4622C177.254 66.4622 177.447 64.6663 180.224 62.4194C183.001 60.1725 184.77 58.9154 184.77 58.9154C184.77 58.9154 185.585 63.1859 182.988 65.4372C181.085 67.0216 179.053 68.4442 176.913 69.6902L177.254 66.4622Z" fill="#91C4F0"/>
<path d="M172.826 79.7686C172.826 79.7686 173.207 78.0166 176.203 76.0631C179.199 74.1096 181.087 73.0497 181.087 73.0497C181.087 73.0497 181.45 77.3727 178.643 79.3525C176.585 80.728 174.415 81.928 172.156 82.9397L172.826 79.7686Z" fill="#91C4F0"/>
<path d="M173.663 94.2708C173.663 94.2708 173.663 92.4663 176.185 89.9434C178.708 87.4205 180.333 85.9751 180.333 85.9751C180.333 85.9751 181.599 90.1273 179.251 92.6502C177.53 94.433 175.66 96.0667 173.663 97.5339V94.2708Z" fill="#91C4F0"/>
<path d="M173.619 97.8142C173.619 97.8142 173.873 96.0272 171.731 93.1714C169.589 90.3156 168.192 88.6512 168.192 88.6512C168.192 88.6512 166.361 92.5932 168.319 95.414C169.774 97.4174 171.395 99.2957 173.163 101.029L173.619 97.8142Z" fill="#91C4F0"/>
<path d="M171.127 108.304C171.127 108.304 171.127 106.504 173.654 103.977C176.181 101.45 177.802 100.035 177.802 100.035C177.802 100.035 179.068 104.183 176.72 106.706C174.996 108.487 173.125 110.121 171.127 111.589V108.304Z" fill="#91C4F0"/>
<path d="M172.813 117.822C172.813 117.822 172.375 116.07 174.166 113.004C175.958 109.938 177.175 108.12 177.175 108.12C177.175 108.12 179.444 111.817 177.819 114.852C176.6 117.01 175.202 119.061 173.641 120.984L172.813 117.822Z" fill="#91C4F0"/>
<path d="M177.644 62.9407C177.517 64.8179 177.286 66.6866 176.952 68.5383C175.953 73.698 173.448 77.0268 172.458 81.6783C171.468 86.3299 174.328 92.3436 173.562 98.3223C172.795 104.301 170.461 107.634 171.118 111.629C171.775 115.623 175.279 126.433 175.279 126.433" stroke="#263238" stroke-width="1.17749" stroke-linecap="round" stroke-linejoin="round"/>
<path d="M177.232 67.6622L179.952 65.5686" stroke="#263238" stroke-width="1.17749" stroke-linecap="round" stroke-linejoin="round"/>
<path d="M177.355 65.2577L176.22 63.2297" stroke="#263238" stroke-width="1.17749" stroke-linecap="round" stroke-linejoin="round"/>
<path d="M172.611 81.468C172.611 81.468 174.889 79.7554 177.232 78.0472" stroke="#263238" stroke-width="1.17749" stroke-linecap="round" stroke-linejoin="round"/>
<path d="M173.75 77.894C173.75 77.894 171.849 74.171 169.699 71.7007" stroke="#263238" stroke-width="1.17749" stroke-linecap="round" stroke-linejoin="round"/>
<path d="M173.75 96.8375C175.055 94.4408 176.7 92.2456 178.634 90.3201" stroke="#263238" stroke-width="1.17749" stroke-linecap="round" stroke-linejoin="round"/>
<path d="M173.308 99.369C172.609 97.7395 171.777 96.1705 170.82 94.6781C169.506 92.7158 169.296 92.4618 169.296 92.4618" stroke="#263238" stroke-width="1.17749" stroke-linecap="round" stroke-linejoin="round"/>
<path d="M171.127 111.624C171.705 110.19 172.392 108.802 173.181 107.472C173.969 106.234 174.856 105.062 175.835 103.968" stroke="#263238" stroke-width="1.17749" stroke-linecap="round" stroke-linejoin="round"/>
<path d="M173.636 120.962C173.504 119.594 173.74 118.215 174.32 116.968C175.27 115.133 176.343 112.724 176.79 111.778" stroke="#263238" stroke-width="1.17749" stroke-linecap="round" stroke-linejoin="round"/>
<path d="M160.877 87.4862C160.877 87.4862 160.68 86.3605 161.99 84.499C163.3 82.6375 164.18 81.5557 164.18 81.5557C164.18 81.5557 165.419 84.0172 164.224 85.8568C163.335 87.1588 162.339 88.3836 161.245 89.5185L160.877 87.4862Z" fill="#91C4F0"/>
<path d="M164.399 94.17C164.399 94.17 164.202 93.0356 165.511 91.1785C166.821 89.3214 167.701 88.2395 167.701 88.2395C167.701 88.2395 168.941 90.7054 167.745 92.5407C166.858 93.8434 165.862 95.0684 164.767 96.2023L164.399 94.17Z" fill="#91C4F0"/>
<path d="M161.311 89.3959C161.311 89.3959 161.004 88.2921 159.011 87.2059C157.019 86.1196 155.779 85.4977 155.779 85.4977C155.779 85.4977 155.731 88.2439 157.61 89.3959C158.975 90.1831 160.403 90.8542 161.88 91.4019L161.311 89.3959Z" fill="#91C4F0"/>
<path d="M165.533 97.2579C165.533 97.2579 165.095 96.1936 163.01 95.3045C160.926 94.4153 159.616 93.9467 159.616 93.9467C159.616 93.9467 159.857 96.6929 161.841 97.6302C163.282 98.269 164.773 98.7862 166.3 99.1764L165.533 97.2579Z" fill="#91C4F0"/>
<path d="M166.584 106.434C166.584 106.434 166.387 105.304 164.53 103.994C162.673 102.685 161.495 101.953 161.495 101.953C161.495 101.953 161.153 104.7 162.901 106.022C164.175 106.947 165.524 107.764 166.935 108.462L166.584 106.434Z" fill="#91C4F0"/>
<path d="M166.992 108.663C166.992 108.663 166.637 107.573 167.671 105.549C168.704 103.526 169.423 102.33 169.423 102.33C169.423 102.33 171 104.59 170.08 106.583C169.378 107.997 168.561 109.351 167.636 110.63L166.992 108.663Z" fill="#91C4F0"/>
<path d="M170.163 117.787C170.163 117.787 170.294 116.648 172.073 115.233C173.851 113.819 174.985 113.043 174.985 113.043C174.985 113.043 175.485 115.759 173.816 117.187C172.597 118.184 171.298 119.077 169.931 119.859L170.163 117.787Z" fill="#91C4F0"/>
<path d="M169.694 114.975C169.694 114.975 169.497 113.841 167.64 112.531C165.783 111.221 164.609 110.494 164.609 110.494C164.609 110.494 164.267 113.241 166.011 114.563C167.286 115.488 168.637 116.304 170.049 117.003L169.694 114.975Z" fill="#91C4F0"/>
<path d="M169.668 121.125C169.668 121.125 169.769 119.977 168.301 118.242C166.834 116.508 165.884 115.496 165.884 115.496C165.884 115.496 164.859 118.059 166.212 119.789C167.212 121.009 168.311 122.144 169.497 123.183L169.668 121.125Z" fill="#91C4F0"/>
<path d="M160.68 87.2234C160.965 88.388 161.315 89.5358 161.727 90.6617C162.91 93.7846 164.837 95.6023 165.967 98.4143C167.097 101.226 165.967 105.304 167.084 108.97C168.201 112.636 170.04 114.463 170.053 117.051C170.067 119.64 169.068 126.792 169.068 126.792" stroke="#263238" stroke-width="1.17749" stroke-linecap="round" stroke-linejoin="round"/>
<path d="M161.456 90.1448L159.524 89.1331" stroke="#263238" stroke-width="1.17749" stroke-linecap="round" stroke-linejoin="round"/>
<path d="M161.114 88.6513L161.609 87.2584" stroke="#263238" stroke-width="1.17749" stroke-linecap="round" stroke-linejoin="round"/>
<path d="M165.853 98.2959C165.853 98.2959 164.237 97.4725 162.586 96.6534" stroke="#263238" stroke-width="1.17749" stroke-linecap="round" stroke-linejoin="round"/>
<path d="M164.749 96.2023C165.224 94.703 165.851 93.256 166.62 91.8837" stroke="#263238" stroke-width="1.17749" stroke-linecap="round" stroke-linejoin="round"/>
<path d="M166.808 108.063C165.73 106.703 164.461 105.505 163.041 104.507" stroke="#263238" stroke-width="1.17749" stroke-linecap="round" stroke-linejoin="round"/>
<path d="M167.36 109.605C167.616 108.511 167.963 107.44 168.398 106.403C169.007 105.024 169.112 104.844 169.112 104.844" stroke="#263238" stroke-width="1.17749" stroke-linecap="round" stroke-linejoin="round"/>
<path d="M169.97 119.005C170.597 118.226 171.292 117.505 172.046 116.85C172.527 116.494 172.978 116.1 173.395 115.672" stroke="#263238" stroke-width="1.17749" stroke-linecap="round" stroke-linejoin="round"/>
<path d="M170.053 117.051C169.53 116.216 168.944 115.42 168.301 114.673C167.672 113.986 166.988 113.352 166.256 112.776" stroke="#263238" stroke-width="1.17749" stroke-linecap="round" stroke-linejoin="round"/>
<path d="M169.506 123.183C169.436 122.306 169.134 121.464 168.63 120.744C167.833 119.692 166.878 118.299 166.519 117.752" stroke="#263238" stroke-width="1.17749" stroke-linecap="round" stroke-linejoin="round"/>
<path d="M177.907 139.126H166.405C166.176 139.126 165.957 139.037 165.793 138.878C165.629 138.718 165.535 138.501 165.529 138.272L163.878 125.544H180.399L178.748 138.272C178.742 138.495 178.652 138.707 178.496 138.866C178.34 139.024 178.129 139.117 177.907 139.126Z" fill="#263238"/>
<path d="M180.268 127.695H163.895C163.554 127.696 163.227 127.562 162.985 127.322C162.743 127.082 162.605 126.756 162.603 126.416C162.609 126.075 162.746 125.751 162.986 125.51C163.226 125.269 163.551 125.13 163.891 125.124H180.268C180.437 125.123 180.605 125.156 180.762 125.22C180.918 125.285 181.061 125.38 181.181 125.499C181.301 125.619 181.396 125.761 181.461 125.917C181.526 126.074 181.56 126.242 181.56 126.411C181.559 126.58 181.525 126.748 181.46 126.904C181.395 127.06 181.299 127.201 181.179 127.321C181.059 127.44 180.917 127.534 180.761 127.598C180.604 127.662 180.437 127.695 180.268 127.695Z" fill="#263238"/>
<path d="M147.422 175.095C143.345 179.999 138.485 184.195 133.038 187.512C131.341 188.528 129.586 189.443 127.782 190.254C115.339 195.847 101.156 196.211 87.8935 192.996C60.006 186.238 45.2104 161.622 43.3313 134.295C42.8276 126.91 41.6976 118.934 44.6891 111.909C47.6807 104.883 53.7295 100.521 60.571 97.49C65.5379 95.2781 70.9034 93.7933 75.7784 92.58C84.6006 90.4006 93.9064 91.3608 102.098 95.2956C107.831 98.0156 111.913 102.742 116.736 106.723C117.247 107.144 117.761 107.563 118.278 107.98C123.149 111.901 128.27 115.502 133.608 118.759C141.715 123.704 150.015 128.369 155.197 136.673C163.462 149.91 156.489 164.32 147.422 175.095Z" fill="#91C4F0"/>
<path opacity="0.4" d="M147.422 175.095C143.345 179.999 138.485 184.195 133.038 187.512C131.341 188.528 129.586 189.443 127.782 190.254C115.339 195.847 101.156 196.211 87.8935 192.996C60.006 186.238 45.2104 161.622 43.3313 134.295C42.8276 126.91 41.6976 118.934 44.6891 111.909C47.6807 104.883 53.7295 100.521 60.571 97.49C65.5379 95.2781 70.9034 93.7933 75.7784 92.58C84.6006 90.4006 93.9064 91.3608 102.098 95.2956C107.831 98.0156 111.913 102.742 116.736 106.723C117.247 107.144 117.761 107.563 118.278 107.98C123.149 111.901 128.27 115.502 133.608 118.759C141.715 123.704 150.015 128.369 155.197 136.673C163.462 149.91 156.489 164.32 147.422 175.095Z" fill="white"/>
<path d="M118.26 107.98C117.743 107.566 117.229 107.145 116.718 106.719C111.9 102.729 107.809 98.0157 102.08 95.2957C93.8883 91.363 84.5833 90.4029 75.7609 92.5801C64.1671 95.4578 49.7875 99.8903 44.6629 111.913C41.6714 118.921 42.8014 126.911 43.3095 134.295C45.2104 161.622 60.006 186.238 87.8935 192.996C103.066 196.675 119.43 195.668 133.038 187.512C138.485 184.195 143.345 179.999 147.422 175.095C156.489 164.32 163.462 149.91 155.205 136.674C150.028 128.352 141.728 123.704 133.616 118.759C128.269 115.503 123.14 111.902 118.26 107.98Z" stroke="#263238" stroke-miterlimit="10"/>
<path d="M76.0149 156.708C73.6931 157.41 71.4399 158.322 69.2828 159.432" stroke="#263238" stroke-linecap="round" stroke-linejoin="round"/>
<path d="M90.2281 154.001C86.8364 154.294 83.4699 154.828 80.1541 155.599" stroke="#263238" stroke-linecap="round" stroke-linejoin="round"/>
<path d="M87.2715 153.3C87.2715 153.3 74.1841 145.688 58.3898 151.789" stroke="#263238" stroke-linecap="round" stroke-linejoin="round"/>
<path opacity="0.1" d="M147.422 175.095C143.345 179.999 138.485 184.195 133.038 187.512C131.341 188.528 129.586 189.443 127.782 190.254C126.358 189.818 124.959 189.305 123.591 188.717C115.417 185.213 108.558 179.286 101.857 173.444C97.8143 169.94 93.7058 166.348 88.8659 164.04C82.321 160.945 74.8751 160.332 67.912 162.314C71.5133 158.249 76.4094 155.555 81.7703 154.688C78.3101 151.539 73.4965 150.216 68.8187 150.133C64.1408 150.05 61.5654 150.624 56.9927 151.649C58.5213 148.837 62.5772 146.292 65.7789 146.366C62.7352 146.326 59.6964 146.111 56.6773 145.723C52.547 145.057 50.6986 140.195 50.081 136.06C48.3728 124.672 50.1029 112.544 56.3181 102.864C57.5486 100.934 58.9721 99.1329 60.5667 97.49C65.5337 95.2781 70.8992 93.7933 75.7741 92.58C84.5963 90.4006 93.9021 91.3608 102.094 95.2956C107.827 98.0156 111.909 102.742 116.731 106.723C117.242 107.144 117.756 107.563 118.273 107.98C123.145 111.901 128.265 115.502 133.603 118.759C141.711 123.704 150.011 128.369 155.192 136.673C163.462 149.91 156.489 164.32 147.422 175.095Z" fill="black"/>
<path d="M151.986 174.762C154.442 176.804 157.011 178.705 159.682 180.456C164.89 180.806 162.555 187.1 162.555 187.1L158.096 189.969C158.096 189.969 150.462 183.903 146.292 181.936C142.122 179.97 151.986 174.762 151.986 174.762Z" fill="white"/>
<path opacity="0.3" d="M114.979 108.493C114.979 108.493 114.266 101.428 113.127 99.4436L95.8345 95.922V94.5818C95.8345 94.5818 96.233 92.2516 92.3786 90.7931C88.5242 89.3345 80.4913 91.2311 78.4196 92.7991C76.3478 94.3671 77.1056 97.0652 77.1056 97.0652C77.1056 97.0652 70.1414 100.582 67.0141 101.923C64.454 103.104 61.9583 104.42 59.5374 105.865C59.5374 105.865 58.1183 122.106 58.3986 125.877C58.6789 129.648 58.1708 133.196 58.495 135.285C58.8191 137.374 59.0731 138.561 61.2631 140.34C63.4531 142.118 65.446 144.72 71.1882 142.14L70.3867 141.505L108.186 128.772L114.979 108.493Z" fill="black"/>
<path d="M114.979 108.493C114.979 108.493 114.266 101.428 113.127 99.4436L95.8345 95.922V94.5818C95.8345 94.5818 96.233 92.2516 92.3786 90.7931C88.5242 89.3345 80.4913 91.2311 78.4196 92.7991C76.3478 94.3671 77.1056 97.0652 77.1056 97.0652C77.1056 97.0652 70.1414 100.582 67.0141 101.923C64.454 103.104 61.9583 104.42 59.5374 105.865C59.5374 105.865 58.1183 122.106 58.3986 125.877C58.6789 129.648 58.1708 133.196 58.495 135.285C58.8191 137.374 59.0731 138.561 61.2631 140.34C63.4531 142.118 65.446 144.72 71.1882 142.14L70.3867 141.505L108.186 128.772L114.979 108.493Z" fill="#91C4F0"/>
<path opacity="0.05" d="M114.979 108.493C114.979 108.493 114.266 101.428 113.127 99.4436L95.8345 95.922V94.5818C95.8345 94.5818 96.233 92.2516 92.3786 90.7931C88.5242 89.3345 80.4913 91.2311 78.4196 92.7991C76.3478 94.3671 77.1056 97.0652 77.1056 97.0652C77.1056 97.0652 70.1414 100.582 67.0141 101.923C64.454 103.104 61.9583 104.42 59.5374 105.865C59.5374 105.865 58.1183 122.106 58.3986 125.877C58.6789 129.648 58.1708 133.196 58.495 135.285C58.8191 137.374 59.0731 138.561 61.2631 140.34C63.4531 142.118 65.446 144.72 71.1882 142.14L70.3867 141.505L108.186 128.772L114.979 108.493Z" fill="black"/>
<path opacity="0.1" d="M113.354 100.302H106.119C105.438 100.303 104.78 100.545 104.261 100.985C103.743 101.426 103.397 102.035 103.285 102.707L99.7195 124.169C99.7195 124.169 94.8095 124.576 91.3318 127.112C87.8541 129.648 79.2999 111.554 65.7832 111.545C65.7832 111.545 69.6727 120.437 70.5355 127.532C70.5355 127.532 62.0865 126.613 60.6849 129.92C59.2833 133.226 61.32 139.424 64.8941 137.024C68.4682 134.624 71.832 130.62 74.2191 133.152C76.6062 135.684 87.2715 137.046 87.2715 137.046L103.683 128.772L110.048 125.78L113.354 100.302Z" fill="black"/>
<path opacity="0.4" d="M90.3813 89.663C90.3813 89.663 94.4898 90.8018 95.1555 92.1815C95.8213 93.5612 95.7512 97.052 95.7512 97.052C94.7542 99.3852 93.2435 101.463 91.3318 103.131L88.2658 97.052L88.5417 103.946C88.5417 103.946 82.7251 102.978 80.2547 101.121L77.7888 99.2595C77.7888 99.2595 76.7245 95.7555 76.8778 94.5686C77.0311 93.3816 81.468 90.9726 81.468 90.9726L90.3813 89.663Z" fill="white"/>
<path d="M158.814 195.97C158.701 195.72 160.501 192.54 159.09 189.304C157.68 186.067 155.433 187.315 155.433 187.315C155.433 187.315 149.034 183.242 146.345 181.954C144.407 180.981 142.541 179.871 140.76 178.634L137.917 182.462L140.545 190.591L158.814 195.97Z" fill="#91C4F0"/>
<path d="M155.201 187.118L163.418 192.138C163.418 192.138 169.195 188.432 171.95 185.874C174.705 183.316 180.894 177.867 180.894 177.867L184.836 172.563C184.836 172.563 182.103 169.182 177.548 171.898C171.661 175.402 164.482 180.491 159.695 180.443C159.695 180.443 160.637 186.325 155.232 187.118" fill="#91C4F0"/>
<path d="M88.9885 68.4287C88.9885 68.4287 92.7159 74.0702 93.3948 75.8966C94.0737 77.7231 94.6212 80.4255 94.4854 81.7264C94.3497 83.0273 92.9831 89.9958 92.2954 90.1973L91.6341 90.9463L92.0721 93.8984C92.0721 93.8984 89.155 98.9398 80.5789 95.2431C80.5789 95.2431 80.2461 89.3563 79.2036 87.508C78.1612 85.6596 76.6019 87.8584 75.0382 82.5192C73.4746 77.18 78.4546 71.5692 78.4546 71.5692L88.9885 68.4287Z" fill="white"/>
<path opacity="0.5" d="M181.258 170.916C181.258 170.916 177.031 171.652 175.66 174.153C174.289 176.654 171.657 181.301 170.759 183.548C169.861 185.795 162.437 191.222 162.437 191.222L163.422 192.137C163.422 192.137 169.467 188.401 173.115 184.849C176.764 181.297 184.81 172.362 184.81 172.362C184.81 172.362 184.232 171.788 181.258 170.916Z" fill="white"/>
<path opacity="0.5" d="M138.964 181.056L137.917 182.462L141.132 189.128L158.814 195.484L159.634 192.895C159.634 192.895 159.905 190.267 153.699 188.27C147.492 186.273 143.708 184.954 141.943 183.583C140.178 182.212 138.964 181.056 138.964 181.056Z" fill="white"/>
<path d="M80.5921 131.545C80.5921 131.545 75.1784 130.73 72.6512 135.158C70.1239 139.586 70.3823 141.505 70.3823 141.505C70.3823 141.505 73.9608 144.755 78.8795 144.571C83.7983 144.387 90.9596 138.754 93.2941 136.919C95.6286 135.084 101.515 129.832 105.532 130.918L105.97 127.121C105.97 127.121 105.576 125.417 102.142 125.877C98.7078 126.337 97.3587 128.295 96.2506 128.295C95.1425 128.295 94.0956 127.23 91.8706 131.032C91.8662 131.032 84.0567 132.416 80.5921 131.545Z" fill="white"/>
<path d="M87.6263 76.5405C87.7416 77.2503 87.9055 77.9513 88.1169 78.6385C88.1961 78.974 88.3454 79.289 88.5549 79.5627C88.9666 80.0007 89.6324 80.1146 90.2412 80.2066C90.3418 80.2138 90.4372 80.2538 90.5128 80.3205C90.5619 80.3989 90.5849 80.4909 90.5785 80.5833C90.5748 81.2732 90.3676 81.9466 89.9828 82.5192" stroke="#263238" stroke-linecap="round" stroke-linejoin="round"/>
<path opacity="0.1" d="M142.595 176.514L138.964 181.039C138.964 181.039 142.95 184.722 147.076 186.089C151.202 187.455 158.425 190.031 159.634 192.015L159.169 189.654C159.169 189.654 147.873 182.725 145.28 181.069C144.514 180.566 143.873 179.894 143.407 179.104C142.942 178.315 142.664 177.428 142.595 176.514Z" fill="black"/>
<path opacity="0.1" d="M155.201 187.118L162.432 191.222C162.432 191.222 166.002 188.778 167.754 186.978C169.506 185.178 171.665 183.18 173.01 179.146C174.845 173.571 180.101 170.916 180.101 170.916C180.101 170.916 172.791 174.359 168.985 177.048C165.179 179.738 161.469 180.877 159.314 180.693C159.292 180.706 161.022 186.181 155.201 187.118Z" fill="black"/>
<path d="M85.0771 83.5134C85.0771 83.5134 87.9198 85.7429 90.8719 84.9063C90.8719 84.9063 88.0862 90.4251 85.0771 83.5134Z" fill="white" stroke="#263238" stroke-linecap="round" stroke-linejoin="round"/>
<path d="M84.9721 78.6954C85.0553 79.3086 84.867 79.8386 84.5604 79.8824C84.2538 79.9262 83.934 79.4444 83.8508 78.8444C83.7676 78.2443 83.9516 77.7012 84.2625 77.6574C84.5735 77.6136 84.9064 78.0822 84.9721 78.6954Z" fill="#263238"/>
<path d="M91.161 77.5785C91.2399 78.1961 91.0559 78.7261 90.7493 78.7655C90.4427 78.8049 90.1186 78.3275 90.0398 77.7318C89.9609 77.1361 90.1405 76.5843 90.4515 76.5448C90.7625 76.5054 91.0778 76.9653 91.161 77.5785Z" fill="#263238"/>
<path d="M84.5341 76.0938C84.5341 76.0938 82.8784 75.2397 81.7002 77.0705" stroke="#263238" stroke-linecap="round" stroke-linejoin="round"/>
<path d="M88.7783 74.9549C88.7783 74.9549 90.5303 73.4526 91.5421 74.9549" stroke="#263238" stroke-linecap="round" stroke-linejoin="round"/>
<path d="M78.9102 81.7308C78.9102 81.7308 77.8458 80.1583 76.7202 80.2065C75.5945 80.2547 75.1478 81.8315 75.5507 83.3558C75.9537 84.88 77.6312 87.0087 78.9014 86.8072C79.6179 86.7149 80.2716 86.3511 80.7279 85.791" stroke="#263238" stroke-linecap="round" stroke-linejoin="round"/>
<path d="M89.1155 69.699C90.3113 70.6932 91.5771 71.7751 92.1815 73.238C92.7159 74.4819 92.8342 75.866 93.3247 77.1231C93.8459 78.4677 94.4153 79.8737 94.4591 81.341C94.436 82.6985 94.2582 84.049 93.9292 85.3662C93.7473 86.5084 93.4763 87.6345 93.1189 88.7345C92.5276 90.3069 91.4369 91.2749 89.974 92.0195C88.9097 92.5626 87.1358 93.3334 85.9838 92.6064C85.3137 92.1684 84.3063 90.9157 83.4697 89.7638" stroke="#263238" stroke-linecap="round" stroke-linejoin="round"/>
<path d="M78.9102 86.8073C78.9102 86.8073 80.7936 91.4238 80.338 94.6693" stroke="#263238" stroke-linecap="round" stroke-linejoin="round"/>
<path d="M78.4284 80.9555C78.6791 80.77 78.8777 80.5231 79.005 80.2384C79.1324 79.9538 79.1842 79.6411 79.1554 79.3305C79.0854 78.621 78.5948 77.964 78.6912 77.2544C78.7717 76.9146 78.8985 76.5875 79.0678 76.2821C79.3229 75.6928 79.4352 75.0517 79.3956 74.4108C79.3561 73.7699 79.1657 73.1475 78.8401 72.5941C78.8401 72.5941 84.8232 72.8744 87.6264 71.0918C90.4296 69.3091 92.567 64.7495 90.8719 62.5727C89.1769 60.3958 85.8744 63.3654 83.4259 63.6939C80.9775 64.0224 72.2701 65.4109 70.8816 68.766C69.4932 72.1211 71.6087 73.3256 71.6744 76.5273C71.7401 79.7291 71.7401 85.7954 76.5274 85.2392C76.5274 85.2392 74.736 82.9221 75.9799 80.535C76.8253 79.532 78.4284 80.9555 78.4284 80.9555Z" fill="#263238"/>
<path d="M90.1623 66.3569C90.9747 66.9897 91.6483 67.7829 92.1411 68.6871C92.6339 69.5913 92.9354 70.5872 93.0268 71.6129C93.294 74.0132 97.5514 78.6779 94.481 81.3365C94.481 81.3365 93.767 78.5114 93.3465 77.1186C92.9261 75.7258 92.3873 73.1766 91.6822 72.3006C90.977 71.4246 87.2365 68.3586 87.2365 68.3586L90.1623 66.3569Z" fill="#263238"/>
<path d="M79.462 94.5686C79.462 94.5686 82.4141 96.5133 87.8979 96.5921L88.5417 103.946C88.5417 103.946 82.3747 103.477 77.7888 99.2595C77.7888 99.2595 76.5493 95.9789 76.8778 94.5686C77.2063 93.1582 80.154 91.761 80.154 91.761" stroke="#263238" stroke-linecap="round" stroke-linejoin="round"/>
<path d="M91.8662 91.2792L92.0414 93.9072C90.8854 95.1113 89.4676 96.0331 87.8979 96.6009L91.3319 103.14C91.3319 103.14 95.4272 99.9516 95.8345 96.6009C95.8345 96.6009 95.8696 93.1714 95.1556 92.1903C94.4417 91.2092 91.8399 90.7493 91.8399 90.7493" stroke="#263238" stroke-linecap="round" stroke-linejoin="round"/>
<path opacity="0.8" d="M75.2484 70.956C75.6864 69.8566 76.8865 69.204 78.056 69.0288C79.2255 68.8536 80.4256 68.9762 81.6082 68.9456C83.2457 68.9324 84.8494 68.4785 86.251 67.6316C86.9473 67.2075 87.5533 66.6504 88.0343 65.992C88.5153 65.3337 88.8619 64.587 89.0542 63.7947" stroke="white" stroke-linecap="round" stroke-linejoin="round"/>
<path opacity="0.8" d="M72.4233 70.7413C73.1636 68.4944 75.5638 67.1059 77.9246 66.9088C79.0941 66.8081 80.2767 66.9439 81.4286 66.8081C82.5806 66.6723 83.807 66.1905 84.4158 65.1875" stroke="white" stroke-linecap="round" stroke-linejoin="round"/>
<path d="M71.1794 142.14C65.4854 145.092 63.4618 142.052 60.2907 139.538C57.1196 137.024 59.2001 132.53 58.5387 125.325C57.8773 118.12 59.5242 105.865 59.5242 105.865C59.5242 105.865 60.9434 105.54 64.881 103.131C68.8186 100.722 77.1055 97.052 77.1055 97.052" stroke="#263238" stroke-linecap="round" stroke-linejoin="round"/>
<path d="M76.8209 131.234C76.8209 131.234 75.9186 128.373 73.3695 128.299C70.8203 128.225 66.7995 129.372 63.9349 134.79" stroke="#263238" stroke-linecap="round" stroke-linejoin="round"/>
<path d="M72.7869 128.128C72.6286 128.118 72.4731 128.081 72.327 128.019C70.2256 127.262 67.9448 127.159 65.7833 127.721" stroke="#263238" stroke-linecap="round" stroke-linejoin="round"/>
<path d="M64.3159 109.776C68.9543 114.9 71.2144 121.681 73.3562 128.251" stroke="#263238" stroke-linecap="round" stroke-linejoin="round"/>
<path d="M95.8345 95.922C95.8345 95.922 104.244 97.928 108.353 98.4055C112.461 98.8829 113.127 99.4567 113.127 99.4567L113.893 102.321" stroke="#263238" stroke-linecap="round" stroke-linejoin="round"/>
<path d="M135.022 100.906L106.382 102.006L104.043 131.461H108.948L133.818 125.894L136.945 101.612L135.022 100.906Z" fill="white"/>
<path d="M105.532 132.333L136.857 102.308L133.818 125.894L105.532 132.333Z" fill="#91C4F0"/>
<path opacity="0.7" d="M105.532 132.333L136.857 102.308L133.818 125.894L105.532 132.333Z" fill="white"/>
<path d="M105.532 131.544L108.037 103.131L136.945 101.612L133.818 125.894L105.532 131.544Z" stroke="#263238" stroke-linecap="round" stroke-linejoin="round"/>
<path d="M124.76 115.378C124.567 117.108 123.643 118.422 122.697 118.317C121.751 118.212 121.146 116.718 121.339 114.988C121.532 113.258 122.46 111.944 123.406 112.049C124.353 112.154 124.957 113.648 124.76 115.378Z" fill="#263238"/>
<path d="M133.818 125.894C133.818 125.894 147.054 125.518 151.193 128.251C155.332 130.984 157.763 144.689 157.19 151.968C156.616 159.248 151.623 175.953 151.623 175.953L142.057 165.126C142.057 165.126 137.344 147.991 139.915 141.281C139.915 141.281 127.213 141.995 122.211 140.427C122.211 140.427 117.73 133.091 110.048 130.664L133.818 125.894Z" fill="#263238"/>
<path d="M153.642 176.238C150.244 173.066 147.193 169.543 144.54 165.726C139.91 158.574 133.511 151.71 126.928 146.353C121.624 142.052 120.424 135.044 113.88 131.527C103.04 125.715 93.6663 137.265 90.1623 139.604C86.6583 141.943 80.592 144.593 80.592 144.593C80.592 144.593 82.8083 152.915 89.317 153.9C95.8257 154.886 102.409 150.396 105.523 152.564C108.637 154.732 110.941 164.412 121.225 170.084C129.631 174.718 141.084 179.238 146.993 182.287C148.307 182.97 149.288 183.688 150.033 184.096C152.074 185.208 154.255 186.518 156.313 187.814L163.405 192.133C163.405 192.133 170.522 187.924 173.255 184.043C173.619 183.522 174.377 182.134 175.086 180.793C176.632 177.863 178.59 175.235 181.301 173.785C183.176 172.773 184.845 172.471 184.805 172.366C184.626 172.033 181.227 170.294 178.919 171.245C174.031 173.264 164.259 181.021 159.647 180.443C157.501 179.258 155.488 177.849 153.642 176.238Z" stroke="#263238" stroke-miterlimit="10"/>
<path d="M153.642 176.238C149.38 177.959 147.663 180.618 147.006 182.291C141.097 179.225 129.644 174.722 121.238 170.088C110.954 164.394 108.668 154.732 105.536 152.568C102.404 150.405 95.8169 154.907 89.3301 153.904C82.8434 152.901 80.592 144.588 80.592 144.588C80.592 144.588 86.6627 141.96 90.1667 139.621C93.6707 137.282 101.752 125.728 113.88 131.544C120.577 134.755 121.624 142.056 126.928 146.371C133.498 151.71 139.91 158.591 144.54 165.744C147.187 169.56 150.238 173.078 153.642 176.238Z" fill="#263238"/>
<path d="M121.615 139.104C121.615 139.104 118.334 132.438 113.074 131.146" stroke="white" stroke-linecap="round" stroke-linejoin="round"/>
<path d="M104.419 125.833C100.801 125.045 96.8288 129.044 95.1556 128.295C93.9117 127.738 91.8662 131.032 91.8662 131.032C88.4994 131.518 85.0945 131.69 81.6959 131.544C76.8209 131.234 74.5126 132.184 72.7869 134.79L70.3779 141.172C70.3779 141.172 76.7333 146.866 83.5179 143.55C90.3026 140.234 99.3166 130.23 105.527 130.266" stroke="#263238" stroke-linecap="round" stroke-linejoin="round"/>
<path d="M154.925 186.947C154.925 186.947 160.864 187.433 159.471 180.338" stroke="#263238" stroke-miterlimit="10"/>
<path d="M182.913 175.953C182.475 176.829 177.031 181.463 172.34 185.515C172.34 185.454 173.654 182.979 174.197 181.923C175.445 179.593 178.669 173.203 184.805 172.362C185.677 172.887 182.913 175.953 182.913 175.953Z" fill="#263238"/>
<path d="M180.579 170.964C174.372 172.2 172.962 180.162 170.759 183.548C168.556 186.934 162.437 191.537 162.437 191.537" stroke="#263238" stroke-miterlimit="10"/>
<path d="M159.09 189.505C160.102 191.353 159.625 193.5 159.09 194.844C158.829 195.512 158.503 196.153 158.118 196.758C149.332 195.313 140.545 190.591 140.545 190.591L138.281 183.583L137.917 182.462L141.33 177.867" stroke="#263238" stroke-miterlimit="10"/>
<path d="M159.09 194.844C158.829 195.512 158.503 196.153 158.118 196.758C149.332 195.313 140.545 190.591 140.545 190.591L138.281 183.583C139.415 185.064 141.518 187.232 144.671 188.121C148.951 189.334 156.848 190.753 159.09 194.844Z" fill="#263238"/>
<path d="M104.043 130.436L106.382 102.006L135.022 100.906L136.945 101.612" stroke="#263238" stroke-linecap="round" stroke-linejoin="round"/>
<path d="M159.432 183.548C159.432 183.548 163.348 184.249 166.357 181.796C169.366 179.344 174.215 173.794 174.215 173.794" stroke="#263238" stroke-miterlimit="10"/>
<path d="M163.418 180.018C163.418 180.018 162.472 181.441 163.418 184.297" stroke="#263238" stroke-linecap="round" stroke-linejoin="round"/>
<path d="M166.195 178.656C165.764 180.075 165.891 181.606 166.55 182.935" stroke="#263238" stroke-linecap="round" stroke-linejoin="round"/>
<path d="M169.506 176.737C169.506 176.737 168.713 179.116 169.506 181.214" stroke="#263238" stroke-linecap="round" stroke-linejoin="round"/>
<path d="M142.105 177.276L138.964 181.056C138.964 181.056 142.127 184.512 146.59 185.949C151.053 187.385 159.025 189.825 159.686 192.422" stroke="#263238" stroke-miterlimit="10"/>
</svg>
