<svg width="30" height="23" viewBox="0 0 30 23" fill="none" xmlns="http://www.w3.org/2000/svg">
<path d="M1.46867 16.903C1.86221 19.6011 4.28323 21.7149 7.2294 21.8399C9.70848 21.9451 12.2268 22 15 22C17.7732 22 20.2915 21.9451 22.7706 21.8399C25.7168 21.7149 28.1378 19.6011 28.5313 16.903C28.7882 15.1422 29 13.3377 29 11.5C29 9.6623 28.7882 7.85782 28.5313 6.09695C28.1378 3.39888 25.7168 1.2851 22.7706 1.16007C20.2915 1.05487 17.7732 1 15 1C12.2268 1 9.70848 1.05487 7.2294 1.16007C4.28322 1.2851 1.86221 3.39888 1.46867 6.09695C1.21183 7.85782 0.999997 9.6623 0.999997 11.5C0.999997 13.3377 1.21183 15.1422 1.46867 16.903Z" stroke="#767676" stroke-width="1.5"/>
<path d="M24.8908 4.58924C24.8466 4.52684 24.7912 4.47422 24.7277 4.43439C24.6641 4.39457 24.5938 4.36831 24.5206 4.35712C24.4475 4.34593 24.373 4.35003 24.3013 4.36919C24.2297 4.38834 24.1623 4.42218 24.1031 4.46876L15.027 11.6026C14.9945 11.6282 14.9551 11.6421 14.9145 11.6421C14.8739 11.6421 14.8344 11.6282 14.8019 11.6026L5.90406 4.43716C5.84532 4.38995 5.77832 4.3554 5.70689 4.33546C5.63546 4.31552 5.561 4.31059 5.48777 4.32095C5.41453 4.33131 5.34395 4.35676 5.28005 4.39585C5.21616 4.43493 5.1602 4.48689 5.11537 4.54875C5.07054 4.61061 5.03772 4.68116 5.01879 4.75637C4.99985 4.83159 4.99517 4.90999 5.00501 4.98711C5.01485 5.06423 5.03902 5.13855 5.07614 5.20584C5.11326 5.27312 5.1626 5.33205 5.22134 5.37925L10.269 9.4448C11.2676 10.2491 11.2621 11.772 10.2577 12.5691L5.29824 16.5046C5.23863 16.5514 5.18837 16.6101 5.15031 16.6774C5.11226 16.7447 5.08716 16.8192 5.07645 16.8967C5.06573 16.9742 5.06962 17.0531 5.08789 17.129C5.10615 17.2049 5.13843 17.2763 5.18289 17.3391C5.22735 17.4018 5.28311 17.4548 5.347 17.4948C5.41088 17.5349 5.48164 17.5613 5.55522 17.5726C5.62881 17.5839 5.70378 17.5798 5.77587 17.5606C5.84795 17.5413 5.91573 17.5073 5.97533 17.4605L12.1655 12.5398C12.738 12.0847 13.5499 12.0892 14.1173 12.5506C14.3439 12.7332 14.6207 12.8331 14.906 12.8353C15.1913 12.8374 15.4695 12.7416 15.6985 12.5624C16.2973 12.0918 17.1403 12.0918 17.7392 12.5623L23.9736 17.4605C24.0329 17.5071 24.1002 17.5409 24.1719 17.56C24.2435 17.5792 24.3181 17.5833 24.3912 17.5721C24.4644 17.5609 24.5347 17.5346 24.5982 17.4948C24.6617 17.455 24.7172 17.4024 24.7614 17.34C24.8056 17.2777 24.8377 17.2067 24.8559 17.1313C24.8741 17.0558 24.878 16.9774 24.8673 16.9003C24.8567 16.8233 24.8318 16.7492 24.794 16.6824C24.7562 16.6155 24.7062 16.5571 24.647 16.5105L19.6564 12.584C18.6386 11.7832 18.6387 10.241 19.6566 9.44026L24.7764 5.41283C24.8945 5.31895 24.9727 5.17989 24.9941 5.02575C25.0155 4.87161 24.9784 4.71479 24.8908 4.58924Z" fill="#767676"/>
</svg>
