<svg width="28" height="28" viewBox="0 0 28 28" fill="none" xmlns="http://www.w3.org/2000/svg">
<g filter="url(#filter0_d_769_427)">
<path d="M17 15.625C16.9264 17.4769 15.3831 19.0494 13.3156 18.9988C12.8346 18.987 12.2401 18.8194 11.0511 18.484C8.18961 17.6768 5.70555 16.3203 5.10956 13.2815C5 12.723 5 12.0944 5 10.8373L5 9.16274C5 7.90561 5 7.27705 5.10956 6.71846C5.70555 3.67965 8.18961 2.32316 11.0511 1.51603C12.2401 1.18064 12.8346 1.01295 13.3156 1.00119C15.3831 0.95061 16.9264 2.52307 17 4.37501" stroke="#FF4040" stroke-width="1.5" stroke-linecap="round"/>
<path d="M23 10H12M23 10C23 9.29977 21.0057 7.99153 20.5 7.5M23 10C23 10.7002 21.0057 12.0085 20.5 12.5" stroke="#FF4040" stroke-width="1.5" stroke-linecap="round" stroke-linejoin="round"/>
</g>
<defs>
<filter id="filter0_d_769_427" x="0.25" y="0.25" width="27.5" height="27.5" filterUnits="userSpaceOnUse" color-interpolation-filters="sRGB">
<feFlood flood-opacity="0" result="BackgroundImageFix"/>
<feColorMatrix in="SourceAlpha" type="matrix" values="0 0 0 0 0 0 0 0 0 0 0 0 0 0 0 0 0 0 127 0" result="hardAlpha"/>
<feOffset dy="4"/>
<feGaussianBlur stdDeviation="2"/>
<feComposite in2="hardAlpha" operator="out"/>
<feColorMatrix type="matrix" values="0 0 0 0 0 0 0 0 0 0 0 0 0 0 0 0 0 0 0.25 0"/>
<feBlend mode="normal" in2="BackgroundImageFix" result="effect1_dropShadow_769_427"/>
<feBlend mode="normal" in="SourceGraphic" in2="effect1_dropShadow_769_427" result="shape"/>
</filter>
</defs>
</svg>
