<svg width="20" height="22" viewBox="0 0 20 22" fill="none" xmlns="http://www.w3.org/2000/svg">
<path d="M14.473 2.45166L14.8816 6.3916C14.9338 6.93831 15.3678 7.60591 15.842 7.87962L18.6438 9.49496C20.4352 10.529 20.3634 12.0947 18.4719 12.9601L15.2747 14.4361C14.7333 14.686 14.2324 15.3708 14.1499 15.964L13.7334 19.112C13.4018 21.603 11.8621 22.0402 10.2954 20.0893L8.11784 17.3725C7.72469 16.8816 6.8909 16.5706 6.2629 16.6806L2.83812 17.3077C0.385828 17.7595 -0.497356 16.4079 0.879905 14.3177L2.6267 11.6659C2.95284 11.1635 3.02275 10.318 2.77726 9.77455L1.32766 6.56537C0.474269 4.6761 1.43603 3.44235 3.46697 3.83405L6.64223 4.44813C7.17047 4.54832 7.93564 4.32801 8.33312 3.94903L11.2221 1.23911C12.7945 -0.229587 14.2559 0.315537 14.473 2.45166Z" fill="#FFEA2A"/>
</svg>
