<svg width="27" height="30" viewBox="0 0 27 30" fill="none" xmlns="http://www.w3.org/2000/svg">
<g filter="url(#filter0_d_1_253)">
<path d="M9.50195 15H13.502M9.50195 10H17.502" stroke="#2A353D" stroke-width="1.5" stroke-linecap="round"/>
<path d="M9.00391 2.5C7.44811 2.54667 6.52052 2.71984 5.87868 3.36227C5 4.24177 5 5.6573 5 8.48836L5 14.9944C5 17.8255 5 19.241 5.87868 20.1205C6.75736 21 8.17157 21 11 21L16 21C18.8284 21 20.2426 21 21.1213 20.1205C22 19.241 22 17.8255 22 14.9944V8.48836C22 5.6573 22 4.24177 21.1213 3.36228C20.4795 2.71984 19.5519 2.54667 17.9961 2.5" stroke="#2A353D" stroke-width="1.5"/>
<path d="M9 2.75C9 1.7835 9.7835 1 10.75 1H16.25C17.2165 1 18 1.7835 18 2.75C18 3.7165 17.2165 4.5 16.25 4.5H10.75C9.7835 4.5 9 3.7165 9 2.75Z" stroke="#2A353D" stroke-width="1.5" stroke-linejoin="round"/>
</g>
<defs>
<filter id="filter0_d_1_253" x="0.25" y="0.25" width="26.5" height="29.5" filterUnits="userSpaceOnUse" color-interpolation-filters="sRGB">
<feFlood flood-opacity="0" result="BackgroundImageFix"/>
<feColorMatrix in="SourceAlpha" type="matrix" values="0 0 0 0 0 0 0 0 0 0 0 0 0 0 0 0 0 0 127 0" result="hardAlpha"/>
<feOffset dy="4"/>
<feGaussianBlur stdDeviation="2"/>
<feComposite in2="hardAlpha" operator="out"/>
<feColorMatrix type="matrix" values="0 0 0 0 0 0 0 0 0 0 0 0 0 0 0 0 0 0 0.25 0"/>
<feBlend mode="normal" in2="BackgroundImageFix" result="effect1_dropShadow_1_253"/>
<feBlend mode="normal" in="SourceGraphic" in2="effect1_dropShadow_1_253" result="shape"/>
</filter>
</defs>
</svg>
